<svg width="3072" height="1355" xmlns="http://www.w3.org/2000/svg" xmlns:xlink="http://www.w3.org/1999/xlink" xml:space="preserve" overflow="hidden"><defs><clipPath id="clip0"><rect x="623" y="659" width="3072" height="1355"/></clipPath></defs><g clip-path="url(#clip0)" transform="translate(-623 -659)"><rect x="624" y="660" width="3069" height="1352" fill="#FFFFFF"/><g><path d="M873.5 1429.55 3642.5 1429.55M873.5 1191.54 3642.5 1191.54M873.5 952.531 3642.5 952.531M873.5 713.5 3642.5 713.5" stroke="#D9D9D9" stroke-width="3.4375" stroke-linejoin="round" stroke-miterlimit="10" stroke-dasharray="13.75 10.3125" fill="none"/></g><g><rect x="873.5" y="713.5" width="2769" height="955" stroke="#A6A6A6" stroke-width="3.4375" stroke-linejoin="round" stroke-miterlimit="10" fill="none"/></g><g><path d="M873.5 1668.5 3642.5 1668.5" stroke="#D9D9D9" stroke-width="3.4375" stroke-linejoin="round" stroke-miterlimit="10" fill="none" fill-rule="evenodd"/></g><g><path d="M1151 1232 1704.06 1281.04 2258.07 1349.04 2812.09 1364.04 3365 1436" stroke="#00B0F0" stroke-width="10.3125" stroke-linecap="round" stroke-linejoin="round" stroke-miterlimit="10" fill="none"/></g><g><path d="M1151 1125 1704.06 1125 2258.07 1183.04 2812.09 1208 3365 1125" stroke="#ED7D31" stroke-width="10.3125" stroke-linecap="round" stroke-linejoin="round" stroke-miterlimit="10" fill="none"/></g><g><path d="M1151 1005 1704.06 1005 2258.07 1005 2812.09 1042.03 3365 1082" stroke="#7F7F7F" stroke-width="10.3125" stroke-linecap="round" stroke-linejoin="round" stroke-miterlimit="10" fill="none"/></g><g><path d="M1151 911 1704.06 911 2258.07 911 2812.09 911 3365 922" stroke="#00B050" stroke-width="10.3125" stroke-linecap="round" stroke-linejoin="round" stroke-miterlimit="10" fill="none"/></g><g><path d="M1151 850 1704.06 850 2258.07 850 2812.09 850 3365 850" stroke="#7030A0" stroke-width="10.3125" stroke-linecap="round" stroke-linejoin="round" stroke-miterlimit="10" fill="none"/></g><g><text fill="#595959" font-family="Times New Roman,Times New Roman_MSFontService,sans-serif" font-weight="700" font-size="55" transform="matrix(1 0 0 1 758.388 1686)">0.2</text></g><g><text fill="#595959" font-family="Times New Roman,Times New Roman_MSFontService,sans-serif" font-weight="700" font-size="55" transform="matrix(1 0 0 1 758.388 1447)">0.4</text></g><g><text fill="#595959" font-family="Times New Roman,Times New Roman_MSFontService,sans-serif" font-weight="700" font-size="55" transform="matrix(1 0 0 1 758.388 1208)">0.6</text></g><g><text fill="#595959" font-family="Times New Roman,Times New Roman_MSFontService,sans-serif" font-weight="700" font-size="55" transform="matrix(1 0 0 1 758.388 969)">0.8</text></g><g><text fill="#595959" font-family="Times New Roman,Times New Roman_MSFontService,sans-serif" font-weight="700" font-size="55" transform="matrix(1 0 0 1 799.638 730)">1</text></g><g><text fill="#595959" font-family="Times New Roman,Times New Roman_MSFontService,sans-serif" font-weight="700" font-size="55" transform="matrix(1 0 0 1 1115.62 1751)">1H</text></g><g><text fill="#595959" font-family="Times New Roman,Times New Roman_MSFontService,sans-serif" font-weight="700" font-size="55" transform="matrix(1 0 0 1 1669.28 1751)">2H</text></g><g><text fill="#595959" font-family="Times New Roman,Times New Roman_MSFontService,sans-serif" font-weight="700" font-size="55" transform="matrix(1 0 0 1 2222.94 1751)">4H</text></g><g><text fill="#595959" font-family="Times New Roman,Times New Roman_MSFontService,sans-serif" font-weight="700" font-size="55" transform="matrix(1 0 0 1 2762.84 1751)">12H</text></g><g><text fill="#595959" font-family="Times New Roman,Times New Roman_MSFontService,sans-serif" font-weight="700" font-size="55" transform="matrix(1 0 0 1 3316.5 1751)">24H</text></g><g><text fill="#595959" font-family="Times New Roman,Times New Roman_MSFontService,sans-serif" font-weight="700" font-size="55" transform="matrix(6.12323e-17 -1 1 6.12323e-17 732.378 1348)">Accuracy (r²)</text></g><g><text fill="#595959" font-family="Times New Roman,Times New Roman_MSFontService,sans-serif" font-weight="700" font-size="55" transform="matrix(1 0 0 1 1928.08 1827)">Forecast Horizon</text></g><g><path d="M840 1941 928 1941" stroke="#00B0F0" stroke-width="10.3125" stroke-linecap="round" stroke-linejoin="round" stroke-miterlimit="10" fill="none" fill-rule="evenodd"/></g><g><text fill="#595959" font-family="Times New Roman,Times New Roman_MSFontService,sans-serif" font-weight="700" font-size="55" transform="matrix(1 0 0 1 936.812 1958)">Aggregation 1H</text></g><g><path d="M1371 1941 1459 1941" stroke="#ED7D31" stroke-width="10.3125" stroke-linecap="round" stroke-linejoin="round" stroke-miterlimit="10" fill="none" fill-rule="evenodd"/></g><g><text fill="#595959" font-family="Times New Roman,Times New Roman_MSFontService,sans-serif" font-weight="700" font-size="55" transform="matrix(1 0 0 1 1468.64 1958)">Aggregation 2H</text></g><g><path d="M1903 1941 1991 1941" stroke="#7F7F7F" stroke-width="10.3125" stroke-linecap="round" stroke-linejoin="round" stroke-miterlimit="10" fill="none" fill-rule="evenodd"/></g><g><text fill="#595959" font-family="Times New Roman,Times New Roman_MSFontService,sans-serif" font-weight="700" font-size="55" transform="matrix(1 0 0 1 2000.46 1958)">Aggregation 4H</text></g><g><path d="M2435 1941 2523 1941" stroke="#00B050" stroke-width="10.3125" stroke-linecap="round" stroke-linejoin="round" stroke-miterlimit="10" fill="none" fill-rule="evenodd"/></g><g><text fill="#595959" font-family="Times New Roman,Times New Roman_MSFontService,sans-serif" font-weight="700" font-size="55" transform="matrix(1 0 0 1 2532.28 1958)">Aggregation 12H</text></g><g><path d="M2994 1941 3082 1941" stroke="#7030A0" stroke-width="10.3125" stroke-linecap="round" stroke-linejoin="round" stroke-miterlimit="10" fill="none" fill-rule="evenodd"/></g><g><text fill="#595959" font-family="Times New Roman,Times New Roman_MSFontService,sans-serif" font-weight="700" font-size="55" transform="matrix(1 0 0 1 3091.61 1958)">Aggregation 24H</text></g><rect x="624.5" y="660.5" width="3069" height="1352" stroke="#D9D9D9" stroke-width="3.4375" stroke-linejoin="round" stroke-miterlimit="10" fill="none"/></g></svg>