<svg width="2194" height="1047" xmlns="http://www.w3.org/2000/svg" xmlns:xlink="http://www.w3.org/1999/xlink" xml:space="preserve" overflow="hidden"><defs><clipPath id="clip0"><rect x="2008" y="600" width="2194" height="1047"/></clipPath><clipPath id="clip1"><rect x="2009" y="600" width="2191" height="1044"/></clipPath><clipPath id="clip2"><rect x="2009" y="600" width="2191" height="1044"/></clipPath><clipPath id="clip3"><rect x="2273" y="654" width="1880" height="755"/></clipPath><clipPath id="clip4"><rect x="2273" y="654" width="1880" height="755"/></clipPath><clipPath id="clip5"><rect x="2273" y="654" width="1880" height="755"/></clipPath><clipPath id="clip6"><rect x="2009" y="600" width="2191" height="1044"/></clipPath><clipPath id="clip7"><rect x="2009" y="600" width="2191" height="1044"/></clipPath><clipPath id="clip8"><rect x="2009" y="600" width="2191" height="1044"/></clipPath><clipPath id="clip9"><rect x="2009" y="600" width="2191" height="1044"/></clipPath><clipPath id="clip10"><rect x="2009" y="600" width="2191" height="1044"/></clipPath><clipPath id="clip11"><rect x="2009" y="600" width="2191" height="1044"/></clipPath><clipPath id="clip12"><rect x="2009" y="600" width="2191" height="1044"/></clipPath><clipPath id="clip13"><rect x="2009" y="600" width="2191" height="1044"/></clipPath><clipPath id="clip14"><rect x="2009" y="600" width="2191" height="1044"/></clipPath><clipPath id="clip15"><rect x="2009" y="600" width="2191" height="1044"/></clipPath><clipPath id="clip16"><rect x="2009" y="600" width="2191" height="1044"/></clipPath><clipPath id="clip17"><rect x="2009" y="600" width="2191" height="1044"/></clipPath><clipPath id="clip18"><rect x="2009" y="600" width="2191" height="1044"/></clipPath><clipPath id="clip19"><rect x="2009" y="600" width="2191" height="1044"/></clipPath><clipPath id="clip20"><rect x="2009" y="600" width="2191" height="1044"/></clipPath><clipPath id="clip21"><rect x="2009" y="600" width="2191" height="1044"/></clipPath><clipPath id="clip22"><rect x="2009" y="600" width="2191" height="1044"/></clipPath></defs><g clip-path="url(#clip0)" transform="translate(-2008 -600)"><rect x="2009" y="601" width="2191" height="1044" fill="#FFFFFF"/><g clip-path="url(#clip1)"><path d="M2273.5 1218.54 4149.5 1218.54M2273.5 1030.53 4149.5 1030.53M2273.5 842.528 4149.5 842.528M2273.5 654.5 4149.5 654.5" stroke="#D9D9D9" stroke-width="3.4375" stroke-linejoin="round" stroke-miterlimit="10" stroke-dasharray="13.75 10.3125" fill="none"/></g><g clip-path="url(#clip2)"><rect x="2273.5" y="654.5" width="1876" height="752" stroke="#7F7F7F" stroke-width="3.4375" stroke-linejoin="round" stroke-miterlimit="10" fill="none"/></g><g clip-path="url(#clip3)"><path d="M2363.08 712.023 2445.08 712.023 2445.08 1406 2363.08 1406ZM2832.09 1137.04 2914.1 1137.04 2914.1 1406 2832.09 1406ZM3301.11 980.032 3383.11 980.032 3383.11 1406 3301.11 1406ZM3770.12 998.033 3852.13 998.033 3852.13 1406 3770.12 1406Z" fill="#68C05C"/></g><g clip-path="url(#clip4)"><path d="M2467.08 721.024 2549.08 721.024 2549.08 1406 2467.08 1406ZM2936.1 1140.04 3018.1 1140.04 3018.1 1406 2936.1 1406ZM3405.11 972.032 3487.11 972.032 3487.11 1406 3405.11 1406ZM3874.13 1030.03 3956.13 1030.03 3956.13 1406 3874.13 1406Z" fill="#CBA9E5"/></g><g clip-path="url(#clip5)"><path d="M2571.08 728.024 2653.09 728.024 2653.09 1406 2571.08 1406ZM3040.1 1134.04 3122.1 1134.04 3122.1 1406 3040.1 1406ZM3509.11 962.032 3591.12 962.032 3591.12 1406 3509.11 1406ZM3978.13 1156.04 4060.13 1156.04 4060.13 1406 3978.13 1406Z" fill="#5DE4FF"/></g><g clip-path="url(#clip6)"><path d="M2273.5 1406.5 4149.5 1406.5" stroke="#7F7F7F" stroke-width="3.4375" stroke-linejoin="round" stroke-miterlimit="10" fill="none" fill-rule="evenodd"/></g><g clip-path="url(#clip7)"><text fill="#595959" font-family="Times New Roman,Times New Roman_MSFontService,sans-serif" font-weight="700" font-size="55" transform="matrix(1 0 0 1 2198.74 1423)">0</text></g><g clip-path="url(#clip8)"><text fill="#595959" font-family="Times New Roman,Times New Roman_MSFontService,sans-serif" font-weight="700" font-size="55" transform="matrix(1 0 0 1 2143.74 1235)">200</text></g><g clip-path="url(#clip9)"><text fill="#595959" font-family="Times New Roman,Times New Roman_MSFontService,sans-serif" font-weight="700" font-size="55" transform="matrix(1 0 0 1 2143.74 1047)">400</text></g><g clip-path="url(#clip10)"><text fill="#595959" font-family="Times New Roman,Times New Roman_MSFontService,sans-serif" font-weight="700" font-size="55" transform="matrix(1 0 0 1 2143.74 859)">600</text></g><g clip-path="url(#clip11)"><text fill="#595959" font-family="Times New Roman,Times New Roman_MSFontService,sans-serif" font-weight="700" font-size="55" transform="matrix(1 0 0 1 2143.74 671)">800</text></g><g clip-path="url(#clip12)"><text fill="#595959" font-family="Times New Roman,Times New Roman_MSFontService,sans-serif" font-weight="700" font-size="55" transform="matrix(1 0 0 1 2440.45 1488)">Mean</text></g><g clip-path="url(#clip13)"><text fill="#595959" font-family="Times New Roman,Times New Roman_MSFontService,sans-serif" font-weight="700" font-size="55" transform="matrix(1 0 0 1 2776.78 1488)">FHMM_EXACT</text></g><g clip-path="url(#clip14)"><text fill="#595959" font-family="Times New Roman,Times New Roman_MSFontService,sans-serif" font-weight="700" font-size="55" transform="matrix(1 0 0 1 3404.88 1488)">CO</text></g><g clip-path="url(#clip15)"><text fill="#595959" font-family="Times New Roman,Times New Roman_MSFontService,sans-serif" font-weight="700" font-size="55" transform="matrix(1 0 0 1 3796.18 1488)">Seq2Point</text></g><g clip-path="url(#clip16)"><text fill="#595959" font-family="Times New Roman,Times New Roman_MSFontService,sans-serif" font-weight="700" font-size="55" transform="matrix(6.12323e-17 -1 1 6.12323e-17 2089.3 1343)">Root Mean Square Error</text></g><g clip-path="url(#clip17)"><rect x="2189" y="1560" width="27.9998" height="27.0001" fill="#68C05C"/></g><g clip-path="url(#clip18)"><text fill="#595959" font-family="Times New Roman,Times New Roman_MSFontService,sans-serif" font-weight="700" font-size="55" transform="matrix(1 0 0 1 2228.61 1590)">15 seconds granularity</text></g><g clip-path="url(#clip19)"><rect x="2829" y="1560" width="26.9998" height="27.0001" fill="#CBA9E5"/></g><g clip-path="url(#clip20)"><text fill="#595959" font-family="Times New Roman,Times New Roman_MSFontService,sans-serif" font-weight="700" font-size="55" transform="matrix(1 0 0 1 2868.21 1590)">30 seconds granularity</text></g><g clip-path="url(#clip21)"><rect x="3468" y="1560" width="27.9998" height="27.0001" fill="#5DE4FF"/></g><g clip-path="url(#clip22)"><text fill="#595959" font-family="Times New Roman,Times New Roman_MSFontService,sans-serif" font-weight="700" font-size="55" transform="matrix(1 0 0 1 3507.8 1590)">55 seconds granularity</text></g><rect x="2009.5" y="601.5" width="2191" height="1044" stroke="#D9D9D9" stroke-width="3.4375" stroke-linejoin="round" stroke-miterlimit="10" fill="none"/></g></svg>