G04 #@! TF.GenerationSoftware,KiCad,Pcbnew,(6.0.11)*
G04 #@! TF.CreationDate,2023-12-04T17:04:48+01:00*
G04 #@! TF.ProjectId,PCB_Dongle_Linky,5043425f-446f-46e6-976c-655f4c696e6b,rev?*
G04 #@! TF.SameCoordinates,Original*
G04 #@! TF.FileFunction,Legend,Top*
G04 #@! TF.FilePolarity,Positive*
%FSLAX46Y46*%
G04 Gerber Fmt 4.6, Leading zero omitted, Abs format (unit mm)*
G04 Created by KiCad (PCBNEW (6.0.11)) date 2023-12-04 17:04:48*
%MOMM*%
%LPD*%
G01*
G04 APERTURE LIST*
%ADD10C,0.150000*%
%ADD11C,0.125000*%
%ADD12C,0.120000*%
G04 APERTURE END LIST*
D10*
X34311904Y-103066666D02*
X34788095Y-103066666D01*
X34216666Y-103352380D02*
X34550000Y-102352380D01*
X34883333Y-103352380D01*
X28973809Y-103302380D02*
X28973809Y-102302380D01*
X29402380Y-102397619D02*
X29450000Y-102350000D01*
X29545238Y-102302380D01*
X29783333Y-102302380D01*
X29878571Y-102350000D01*
X29926190Y-102397619D01*
X29973809Y-102492857D01*
X29973809Y-102588095D01*
X29926190Y-102730952D01*
X29354761Y-103302380D01*
X29973809Y-103302380D01*
D11*
X27904761Y-130576190D02*
X28071428Y-131076190D01*
X28238095Y-130576190D01*
X28619047Y-131052380D02*
X28571428Y-131076190D01*
X28476190Y-131076190D01*
X28428571Y-131052380D01*
X28404761Y-131028571D01*
X28380952Y-130980952D01*
X28380952Y-130838095D01*
X28404761Y-130790476D01*
X28428571Y-130766666D01*
X28476190Y-130742857D01*
X28571428Y-130742857D01*
X28619047Y-130766666D01*
X29047619Y-131052380D02*
X29000000Y-131076190D01*
X28904761Y-131076190D01*
X28857142Y-131052380D01*
X28833333Y-131028571D01*
X28809523Y-130980952D01*
X28809523Y-130838095D01*
X28833333Y-130790476D01*
X28857142Y-130766666D01*
X28904761Y-130742857D01*
X29000000Y-130742857D01*
X29047619Y-130766666D01*
X30669047Y-130650000D02*
X30621428Y-130626190D01*
X30550000Y-130626190D01*
X30478571Y-130650000D01*
X30430952Y-130697619D01*
X30407142Y-130745238D01*
X30383333Y-130840476D01*
X30383333Y-130911904D01*
X30407142Y-131007142D01*
X30430952Y-131054761D01*
X30478571Y-131102380D01*
X30550000Y-131126190D01*
X30597619Y-131126190D01*
X30669047Y-131102380D01*
X30692857Y-131078571D01*
X30692857Y-130911904D01*
X30597619Y-130911904D01*
X30907142Y-131126190D02*
X30907142Y-130626190D01*
X31192857Y-131126190D01*
X31192857Y-130626190D01*
X31430952Y-131126190D02*
X31430952Y-130626190D01*
X31550000Y-130626190D01*
X31621428Y-130650000D01*
X31669047Y-130697619D01*
X31692857Y-130745238D01*
X31716666Y-130840476D01*
X31716666Y-130911904D01*
X31692857Y-131007142D01*
X31669047Y-131054761D01*
X31621428Y-131102380D01*
X31550000Y-131126190D01*
X31430952Y-131126190D01*
X27361904Y-127276190D02*
X27671428Y-127276190D01*
X27504761Y-127466666D01*
X27576190Y-127466666D01*
X27623809Y-127490476D01*
X27647619Y-127514285D01*
X27671428Y-127561904D01*
X27671428Y-127680952D01*
X27647619Y-127728571D01*
X27623809Y-127752380D01*
X27576190Y-127776190D01*
X27433333Y-127776190D01*
X27385714Y-127752380D01*
X27361904Y-127728571D01*
X27885714Y-127728571D02*
X27909523Y-127752380D01*
X27885714Y-127776190D01*
X27861904Y-127752380D01*
X27885714Y-127728571D01*
X27885714Y-127776190D01*
X28076190Y-127276190D02*
X28385714Y-127276190D01*
X28219047Y-127466666D01*
X28290476Y-127466666D01*
X28338095Y-127490476D01*
X28361904Y-127514285D01*
X28385714Y-127561904D01*
X28385714Y-127680952D01*
X28361904Y-127728571D01*
X28338095Y-127752380D01*
X28290476Y-127776190D01*
X28147619Y-127776190D01*
X28100000Y-127752380D01*
X28076190Y-127728571D01*
X28528571Y-127276190D02*
X28695238Y-127776190D01*
X28861904Y-127276190D01*
X33780952Y-127300000D02*
X33733333Y-127276190D01*
X33661904Y-127276190D01*
X33590476Y-127300000D01*
X33542857Y-127347619D01*
X33519047Y-127395238D01*
X33495238Y-127490476D01*
X33495238Y-127561904D01*
X33519047Y-127657142D01*
X33542857Y-127704761D01*
X33590476Y-127752380D01*
X33661904Y-127776190D01*
X33709523Y-127776190D01*
X33780952Y-127752380D01*
X33804761Y-127728571D01*
X33804761Y-127561904D01*
X33709523Y-127561904D01*
X34019047Y-127776190D02*
X34019047Y-127276190D01*
X34304761Y-127776190D01*
X34304761Y-127276190D01*
X34542857Y-127776190D02*
X34542857Y-127276190D01*
X34661904Y-127276190D01*
X34733333Y-127300000D01*
X34780952Y-127347619D01*
X34804761Y-127395238D01*
X34828571Y-127490476D01*
X34828571Y-127561904D01*
X34804761Y-127657142D01*
X34780952Y-127704761D01*
X34733333Y-127752380D01*
X34661904Y-127776190D01*
X34542857Y-127776190D01*
X35304761Y-127776190D02*
X35019047Y-127776190D01*
X35161904Y-127776190D02*
X35161904Y-127276190D01*
X35114285Y-127347619D01*
X35066666Y-127395238D01*
X35019047Y-127419047D01*
X21204761Y-116576190D02*
X21371428Y-117076190D01*
X21538095Y-116576190D01*
X21919047Y-117052380D02*
X21871428Y-117076190D01*
X21776190Y-117076190D01*
X21728571Y-117052380D01*
X21704761Y-117028571D01*
X21680952Y-116980952D01*
X21680952Y-116838095D01*
X21704761Y-116790476D01*
X21728571Y-116766666D01*
X21776190Y-116742857D01*
X21871428Y-116742857D01*
X21919047Y-116766666D01*
X22347619Y-117052380D02*
X22300000Y-117076190D01*
X22204761Y-117076190D01*
X22157142Y-117052380D01*
X22133333Y-117028571D01*
X22109523Y-116980952D01*
X22109523Y-116838095D01*
X22133333Y-116790476D01*
X22157142Y-116766666D01*
X22204761Y-116742857D01*
X22300000Y-116742857D01*
X22347619Y-116766666D01*
X38419047Y-119000000D02*
X38371428Y-118976190D01*
X38300000Y-118976190D01*
X38228571Y-119000000D01*
X38180952Y-119047619D01*
X38157142Y-119095238D01*
X38133333Y-119190476D01*
X38133333Y-119261904D01*
X38157142Y-119357142D01*
X38180952Y-119404761D01*
X38228571Y-119452380D01*
X38300000Y-119476190D01*
X38347619Y-119476190D01*
X38419047Y-119452380D01*
X38442857Y-119428571D01*
X38442857Y-119261904D01*
X38347619Y-119261904D01*
X38657142Y-119476190D02*
X38657142Y-118976190D01*
X38942857Y-119476190D01*
X38942857Y-118976190D01*
X39180952Y-119476190D02*
X39180952Y-118976190D01*
X39300000Y-118976190D01*
X39371428Y-119000000D01*
X39419047Y-119047619D01*
X39442857Y-119095238D01*
X39466666Y-119190476D01*
X39466666Y-119261904D01*
X39442857Y-119357142D01*
X39419047Y-119404761D01*
X39371428Y-119452380D01*
X39300000Y-119476190D01*
X39180952Y-119476190D01*
D10*
X23023809Y-103502380D02*
X23023809Y-102502380D01*
X24023809Y-103502380D02*
X23452380Y-103502380D01*
X23738095Y-103502380D02*
X23738095Y-102502380D01*
X23642857Y-102645238D01*
X23547619Y-102740476D01*
X23452380Y-102788095D01*
X35511904Y-104616666D02*
X35988095Y-104616666D01*
X35416666Y-104902380D02*
X35750000Y-103902380D01*
X36083333Y-104902380D01*
G04 #@! TO.C,J0*
X22397380Y-104733333D02*
X23111666Y-104733333D01*
X23254523Y-104780952D01*
X23349761Y-104876190D01*
X23397380Y-105019047D01*
X23397380Y-105114285D01*
X22397380Y-104066666D02*
X22397380Y-103971428D01*
X22445000Y-103876190D01*
X22492619Y-103828571D01*
X22587857Y-103780952D01*
X22778333Y-103733333D01*
X23016428Y-103733333D01*
X23206904Y-103780952D01*
X23302142Y-103828571D01*
X23349761Y-103876190D01*
X23397380Y-103971428D01*
X23397380Y-104066666D01*
X23349761Y-104161904D01*
X23302142Y-104209523D01*
X23206904Y-104257142D01*
X23016428Y-104304761D01*
X22778333Y-104304761D01*
X22587857Y-104257142D01*
X22492619Y-104209523D01*
X22445000Y-104161904D01*
X22397380Y-104066666D01*
X37633333Y-104902380D02*
X37157142Y-104902380D01*
X37157142Y-103902380D01*
X37966666Y-104902380D02*
X37966666Y-104235714D01*
X37966666Y-103902380D02*
X37919047Y-103950000D01*
X37966666Y-103997619D01*
X38014285Y-103950000D01*
X37966666Y-103902380D01*
X37966666Y-103997619D01*
X38442857Y-104235714D02*
X38442857Y-104902380D01*
X38442857Y-104330952D02*
X38490476Y-104283333D01*
X38585714Y-104235714D01*
X38728571Y-104235714D01*
X38823809Y-104283333D01*
X38871428Y-104378571D01*
X38871428Y-104902380D01*
X39347619Y-104902380D02*
X39347619Y-103902380D01*
X39442857Y-104521428D02*
X39728571Y-104902380D01*
X39728571Y-104235714D02*
X39347619Y-104616666D01*
X40061904Y-104235714D02*
X40300000Y-104902380D01*
X40538095Y-104235714D02*
X40300000Y-104902380D01*
X40204761Y-105140476D01*
X40157142Y-105188095D01*
X40061904Y-105235714D01*
D11*
G04 #@! TO.C,R4*
X28266666Y-118026190D02*
X28100000Y-117788095D01*
X27980952Y-118026190D02*
X27980952Y-117526190D01*
X28171428Y-117526190D01*
X28219047Y-117550000D01*
X28242857Y-117573809D01*
X28266666Y-117621428D01*
X28266666Y-117692857D01*
X28242857Y-117740476D01*
X28219047Y-117764285D01*
X28171428Y-117788095D01*
X27980952Y-117788095D01*
X28695238Y-117692857D02*
X28695238Y-118026190D01*
X28576190Y-117502380D02*
X28457142Y-117859523D01*
X28766666Y-117859523D01*
G04 #@! TO.C,C2b0*
X24252380Y-124378571D02*
X24228571Y-124402380D01*
X24157142Y-124426190D01*
X24109523Y-124426190D01*
X24038095Y-124402380D01*
X23990476Y-124354761D01*
X23966666Y-124307142D01*
X23942857Y-124211904D01*
X23942857Y-124140476D01*
X23966666Y-124045238D01*
X23990476Y-123997619D01*
X24038095Y-123950000D01*
X24109523Y-123926190D01*
X24157142Y-123926190D01*
X24228571Y-123950000D01*
X24252380Y-123973809D01*
X24442857Y-123973809D02*
X24466666Y-123950000D01*
X24514285Y-123926190D01*
X24633333Y-123926190D01*
X24680952Y-123950000D01*
X24704761Y-123973809D01*
X24728571Y-124021428D01*
X24728571Y-124069047D01*
X24704761Y-124140476D01*
X24419047Y-124426190D01*
X24728571Y-124426190D01*
X24942857Y-124426190D02*
X24942857Y-123926190D01*
X24942857Y-124116666D02*
X24990476Y-124092857D01*
X25085714Y-124092857D01*
X25133333Y-124116666D01*
X25157142Y-124140476D01*
X25180952Y-124188095D01*
X25180952Y-124330952D01*
X25157142Y-124378571D01*
X25133333Y-124402380D01*
X25085714Y-124426190D01*
X24990476Y-124426190D01*
X24942857Y-124402380D01*
X25490476Y-123926190D02*
X25538095Y-123926190D01*
X25585714Y-123950000D01*
X25609523Y-123973809D01*
X25633333Y-124021428D01*
X25657142Y-124116666D01*
X25657142Y-124235714D01*
X25633333Y-124330952D01*
X25609523Y-124378571D01*
X25585714Y-124402380D01*
X25538095Y-124426190D01*
X25490476Y-124426190D01*
X25442857Y-124402380D01*
X25419047Y-124378571D01*
X25395238Y-124330952D01*
X25371428Y-124235714D01*
X25371428Y-124116666D01*
X25395238Y-124021428D01*
X25419047Y-123973809D01*
X25442857Y-123950000D01*
X25490476Y-123926190D01*
G04 #@! TO.C,D4*
X34630952Y-112926190D02*
X34630952Y-112426190D01*
X34750000Y-112426190D01*
X34821428Y-112450000D01*
X34869047Y-112497619D01*
X34892857Y-112545238D01*
X34916666Y-112640476D01*
X34916666Y-112711904D01*
X34892857Y-112807142D01*
X34869047Y-112854761D01*
X34821428Y-112902380D01*
X34750000Y-112926190D01*
X34630952Y-112926190D01*
X35345238Y-112592857D02*
X35345238Y-112926190D01*
X35226190Y-112402380D02*
X35107142Y-112759523D01*
X35416666Y-112759523D01*
G04 #@! TO.C,D1*
X27180952Y-106876190D02*
X27180952Y-106376190D01*
X27300000Y-106376190D01*
X27371428Y-106400000D01*
X27419047Y-106447619D01*
X27442857Y-106495238D01*
X27466666Y-106590476D01*
X27466666Y-106661904D01*
X27442857Y-106757142D01*
X27419047Y-106804761D01*
X27371428Y-106852380D01*
X27300000Y-106876190D01*
X27180952Y-106876190D01*
X27942857Y-106876190D02*
X27657142Y-106876190D01*
X27800000Y-106876190D02*
X27800000Y-106376190D01*
X27752380Y-106447619D01*
X27704761Y-106495238D01*
X27657142Y-106519047D01*
D10*
G04 #@! TO.C,J2*
X42186666Y-105122380D02*
X42186666Y-105836666D01*
X42139047Y-105979523D01*
X42043809Y-106074761D01*
X41900952Y-106122380D01*
X41805714Y-106122380D01*
X42615238Y-105217619D02*
X42662857Y-105170000D01*
X42758095Y-105122380D01*
X42996190Y-105122380D01*
X43091428Y-105170000D01*
X43139047Y-105217619D01*
X43186666Y-105312857D01*
X43186666Y-105408095D01*
X43139047Y-105550952D01*
X42567619Y-106122380D01*
X43186666Y-106122380D01*
D11*
X41460476Y-128336190D02*
X41293809Y-128098095D01*
X41174761Y-128336190D02*
X41174761Y-127836190D01*
X41365238Y-127836190D01*
X41412857Y-127860000D01*
X41436666Y-127883809D01*
X41460476Y-127931428D01*
X41460476Y-128002857D01*
X41436666Y-128050476D01*
X41412857Y-128074285D01*
X41365238Y-128098095D01*
X41174761Y-128098095D01*
X41627142Y-128336190D02*
X41889047Y-128002857D01*
X41627142Y-128002857D02*
X41889047Y-128336190D01*
X42079523Y-128145714D02*
X42460476Y-128145714D01*
X42960476Y-127860000D02*
X42912857Y-127836190D01*
X42841428Y-127836190D01*
X42770000Y-127860000D01*
X42722380Y-127907619D01*
X42698571Y-127955238D01*
X42674761Y-128050476D01*
X42674761Y-128121904D01*
X42698571Y-128217142D01*
X42722380Y-128264761D01*
X42770000Y-128312380D01*
X42841428Y-128336190D01*
X42889047Y-128336190D01*
X42960476Y-128312380D01*
X42984285Y-128288571D01*
X42984285Y-128121904D01*
X42889047Y-128121904D01*
X43198571Y-128002857D02*
X43198571Y-128336190D01*
X43198571Y-128050476D02*
X43222380Y-128026666D01*
X43270000Y-128002857D01*
X43341428Y-128002857D01*
X43389047Y-128026666D01*
X43412857Y-128074285D01*
X43412857Y-128336190D01*
X43865238Y-128336190D02*
X43865238Y-127836190D01*
X43865238Y-128312380D02*
X43817619Y-128336190D01*
X43722380Y-128336190D01*
X43674761Y-128312380D01*
X43650952Y-128288571D01*
X43627142Y-128240952D01*
X43627142Y-128098095D01*
X43650952Y-128050476D01*
X43674761Y-128026666D01*
X43722380Y-128002857D01*
X43817619Y-128002857D01*
X43865238Y-128026666D01*
D10*
G04 #@! TO.C,J1*
X19666666Y-105122380D02*
X19666666Y-105836666D01*
X19619047Y-105979523D01*
X19523809Y-106074761D01*
X19380952Y-106122380D01*
X19285714Y-106122380D01*
X20666666Y-106122380D02*
X20095238Y-106122380D01*
X20380952Y-106122380D02*
X20380952Y-105122380D01*
X20285714Y-105265238D01*
X20190476Y-105360476D01*
X20095238Y-105408095D01*
D11*
X18690476Y-128476190D02*
X18523809Y-128238095D01*
X18404761Y-128476190D02*
X18404761Y-127976190D01*
X18595238Y-127976190D01*
X18642857Y-128000000D01*
X18666666Y-128023809D01*
X18690476Y-128071428D01*
X18690476Y-128142857D01*
X18666666Y-128190476D01*
X18642857Y-128214285D01*
X18595238Y-128238095D01*
X18404761Y-128238095D01*
X18880952Y-128452380D02*
X18928571Y-128476190D01*
X19023809Y-128476190D01*
X19071428Y-128452380D01*
X19095238Y-128404761D01*
X19095238Y-128380952D01*
X19071428Y-128333333D01*
X19023809Y-128309523D01*
X18952380Y-128309523D01*
X18904761Y-128285714D01*
X18880952Y-128238095D01*
X18880952Y-128214285D01*
X18904761Y-128166666D01*
X18952380Y-128142857D01*
X19023809Y-128142857D01*
X19071428Y-128166666D01*
X19238095Y-128142857D02*
X19428571Y-128142857D01*
X19309523Y-127976190D02*
X19309523Y-128404761D01*
X19333333Y-128452380D01*
X19380952Y-128476190D01*
X19428571Y-128476190D01*
X19595238Y-128285714D02*
X19976190Y-128285714D01*
X20166666Y-127976190D02*
X20476190Y-127976190D01*
X20309523Y-128166666D01*
X20380952Y-128166666D01*
X20428571Y-128190476D01*
X20452380Y-128214285D01*
X20476190Y-128261904D01*
X20476190Y-128380952D01*
X20452380Y-128428571D01*
X20428571Y-128452380D01*
X20380952Y-128476190D01*
X20238095Y-128476190D01*
X20190476Y-128452380D01*
X20166666Y-128428571D01*
X20690476Y-128428571D02*
X20714285Y-128452380D01*
X20690476Y-128476190D01*
X20666666Y-128452380D01*
X20690476Y-128428571D01*
X20690476Y-128476190D01*
X20880952Y-127976190D02*
X21190476Y-127976190D01*
X21023809Y-128166666D01*
X21095238Y-128166666D01*
X21142857Y-128190476D01*
X21166666Y-128214285D01*
X21190476Y-128261904D01*
X21190476Y-128380952D01*
X21166666Y-128428571D01*
X21142857Y-128452380D01*
X21095238Y-128476190D01*
X20952380Y-128476190D01*
X20904761Y-128452380D01*
X20880952Y-128428571D01*
X21333333Y-127976190D02*
X21500000Y-128476190D01*
X21666666Y-127976190D01*
G04 #@! TO.C,J4*
X23741190Y-129566666D02*
X24098333Y-129566666D01*
X24169761Y-129590476D01*
X24217380Y-129638095D01*
X24241190Y-129709523D01*
X24241190Y-129757142D01*
X23907857Y-129114285D02*
X24241190Y-129114285D01*
X23717380Y-129233333D02*
X24074523Y-129352380D01*
X24074523Y-129042857D01*
D10*
X38550000Y-129200000D02*
X38550000Y-129900000D01*
X38550000Y-129233333D02*
X38616666Y-129200000D01*
X38750000Y-129200000D01*
X38816666Y-129233333D01*
X38850000Y-129266666D01*
X38883333Y-129333333D01*
X38883333Y-129533333D01*
X38850000Y-129600000D01*
X38816666Y-129633333D01*
X38750000Y-129666666D01*
X38616666Y-129666666D01*
X38550000Y-129633333D01*
X39183333Y-129666666D02*
X39183333Y-129200000D01*
X39183333Y-129333333D02*
X39216666Y-129266666D01*
X39250000Y-129233333D01*
X39316666Y-129200000D01*
X39383333Y-129200000D01*
X39716666Y-129666666D02*
X39650000Y-129633333D01*
X39616666Y-129600000D01*
X39583333Y-129533333D01*
X39583333Y-129333333D01*
X39616666Y-129266666D01*
X39650000Y-129233333D01*
X39716666Y-129200000D01*
X39816666Y-129200000D01*
X39883333Y-129233333D01*
X39916666Y-129266666D01*
X39950000Y-129333333D01*
X39950000Y-129533333D01*
X39916666Y-129600000D01*
X39883333Y-129633333D01*
X39816666Y-129666666D01*
X39716666Y-129666666D01*
X40550000Y-129200000D02*
X40550000Y-129766666D01*
X40516666Y-129833333D01*
X40483333Y-129866666D01*
X40416666Y-129900000D01*
X40316666Y-129900000D01*
X40250000Y-129866666D01*
X40550000Y-129633333D02*
X40483333Y-129666666D01*
X40350000Y-129666666D01*
X40283333Y-129633333D01*
X40250000Y-129600000D01*
X40216666Y-129533333D01*
X40216666Y-129333333D01*
X40250000Y-129266666D01*
X40283333Y-129233333D01*
X40350000Y-129200000D01*
X40483333Y-129200000D01*
X40550000Y-129233333D01*
X40883333Y-129666666D02*
X40883333Y-129200000D01*
X40883333Y-129333333D02*
X40916666Y-129266666D01*
X40950000Y-129233333D01*
X41016666Y-129200000D01*
X41083333Y-129200000D01*
X41616666Y-129666666D02*
X41616666Y-129300000D01*
X41583333Y-129233333D01*
X41516666Y-129200000D01*
X41383333Y-129200000D01*
X41316666Y-129233333D01*
X41616666Y-129633333D02*
X41550000Y-129666666D01*
X41383333Y-129666666D01*
X41316666Y-129633333D01*
X41283333Y-129566666D01*
X41283333Y-129500000D01*
X41316666Y-129433333D01*
X41383333Y-129400000D01*
X41550000Y-129400000D01*
X41616666Y-129366666D01*
X41950000Y-129666666D02*
X41950000Y-129200000D01*
X41950000Y-129266666D02*
X41983333Y-129233333D01*
X42050000Y-129200000D01*
X42150000Y-129200000D01*
X42216666Y-129233333D01*
X42250000Y-129300000D01*
X42250000Y-129666666D01*
X42250000Y-129300000D02*
X42283333Y-129233333D01*
X42350000Y-129200000D01*
X42450000Y-129200000D01*
X42516666Y-129233333D01*
X42550000Y-129300000D01*
X42550000Y-129666666D01*
D11*
G04 #@! TO.C,C2b1*
X22952380Y-119428571D02*
X22928571Y-119452380D01*
X22857142Y-119476190D01*
X22809523Y-119476190D01*
X22738095Y-119452380D01*
X22690476Y-119404761D01*
X22666666Y-119357142D01*
X22642857Y-119261904D01*
X22642857Y-119190476D01*
X22666666Y-119095238D01*
X22690476Y-119047619D01*
X22738095Y-119000000D01*
X22809523Y-118976190D01*
X22857142Y-118976190D01*
X22928571Y-119000000D01*
X22952380Y-119023809D01*
X23142857Y-119023809D02*
X23166666Y-119000000D01*
X23214285Y-118976190D01*
X23333333Y-118976190D01*
X23380952Y-119000000D01*
X23404761Y-119023809D01*
X23428571Y-119071428D01*
X23428571Y-119119047D01*
X23404761Y-119190476D01*
X23119047Y-119476190D01*
X23428571Y-119476190D01*
X23642857Y-119476190D02*
X23642857Y-118976190D01*
X23642857Y-119166666D02*
X23690476Y-119142857D01*
X23785714Y-119142857D01*
X23833333Y-119166666D01*
X23857142Y-119190476D01*
X23880952Y-119238095D01*
X23880952Y-119380952D01*
X23857142Y-119428571D01*
X23833333Y-119452380D01*
X23785714Y-119476190D01*
X23690476Y-119476190D01*
X23642857Y-119452380D01*
X24357142Y-119476190D02*
X24071428Y-119476190D01*
X24214285Y-119476190D02*
X24214285Y-118976190D01*
X24166666Y-119047619D01*
X24119047Y-119095238D01*
X24071428Y-119119047D01*
G04 #@! TO.C,D3*
X27080952Y-113276190D02*
X27080952Y-112776190D01*
X27200000Y-112776190D01*
X27271428Y-112800000D01*
X27319047Y-112847619D01*
X27342857Y-112895238D01*
X27366666Y-112990476D01*
X27366666Y-113061904D01*
X27342857Y-113157142D01*
X27319047Y-113204761D01*
X27271428Y-113252380D01*
X27200000Y-113276190D01*
X27080952Y-113276190D01*
X27533333Y-112776190D02*
X27842857Y-112776190D01*
X27676190Y-112966666D01*
X27747619Y-112966666D01*
X27795238Y-112990476D01*
X27819047Y-113014285D01*
X27842857Y-113061904D01*
X27842857Y-113180952D01*
X27819047Y-113228571D01*
X27795238Y-113252380D01*
X27747619Y-113276190D01*
X27604761Y-113276190D01*
X27557142Y-113252380D01*
X27533333Y-113228571D01*
G04 #@! TO.C,R5*
X33016666Y-117226190D02*
X32850000Y-116988095D01*
X32730952Y-117226190D02*
X32730952Y-116726190D01*
X32921428Y-116726190D01*
X32969047Y-116750000D01*
X32992857Y-116773809D01*
X33016666Y-116821428D01*
X33016666Y-116892857D01*
X32992857Y-116940476D01*
X32969047Y-116964285D01*
X32921428Y-116988095D01*
X32730952Y-116988095D01*
X33469047Y-116726190D02*
X33230952Y-116726190D01*
X33207142Y-116964285D01*
X33230952Y-116940476D01*
X33278571Y-116916666D01*
X33397619Y-116916666D01*
X33445238Y-116940476D01*
X33469047Y-116964285D01*
X33492857Y-117011904D01*
X33492857Y-117130952D01*
X33469047Y-117178571D01*
X33445238Y-117202380D01*
X33397619Y-117226190D01*
X33278571Y-117226190D01*
X33230952Y-117202380D01*
X33207142Y-117178571D01*
G04 #@! TO.C,C1*
X22466666Y-115978571D02*
X22442857Y-116002380D01*
X22371428Y-116026190D01*
X22323809Y-116026190D01*
X22252380Y-116002380D01*
X22204761Y-115954761D01*
X22180952Y-115907142D01*
X22157142Y-115811904D01*
X22157142Y-115740476D01*
X22180952Y-115645238D01*
X22204761Y-115597619D01*
X22252380Y-115550000D01*
X22323809Y-115526190D01*
X22371428Y-115526190D01*
X22442857Y-115550000D01*
X22466666Y-115573809D01*
X22942857Y-116026190D02*
X22657142Y-116026190D01*
X22800000Y-116026190D02*
X22800000Y-115526190D01*
X22752380Y-115597619D01*
X22704761Y-115645238D01*
X22657142Y-115669047D01*
D10*
G04 #@! TO.C,J3*
X35007380Y-126483333D02*
X35721666Y-126483333D01*
X35864523Y-126530952D01*
X35959761Y-126626190D01*
X36007380Y-126769047D01*
X36007380Y-126864285D01*
X35007380Y-126102380D02*
X35007380Y-125483333D01*
X35388333Y-125816666D01*
X35388333Y-125673809D01*
X35435952Y-125578571D01*
X35483571Y-125530952D01*
X35578809Y-125483333D01*
X35816904Y-125483333D01*
X35912142Y-125530952D01*
X35959761Y-125578571D01*
X36007380Y-125673809D01*
X36007380Y-125959523D01*
X35959761Y-126054761D01*
X35912142Y-126102380D01*
D11*
G04 #@! TO.C,R6*
X29566666Y-121226190D02*
X29400000Y-120988095D01*
X29280952Y-121226190D02*
X29280952Y-120726190D01*
X29471428Y-120726190D01*
X29519047Y-120750000D01*
X29542857Y-120773809D01*
X29566666Y-120821428D01*
X29566666Y-120892857D01*
X29542857Y-120940476D01*
X29519047Y-120964285D01*
X29471428Y-120988095D01*
X29280952Y-120988095D01*
X29995238Y-120726190D02*
X29900000Y-120726190D01*
X29852380Y-120750000D01*
X29828571Y-120773809D01*
X29780952Y-120845238D01*
X29757142Y-120940476D01*
X29757142Y-121130952D01*
X29780952Y-121178571D01*
X29804761Y-121202380D01*
X29852380Y-121226190D01*
X29947619Y-121226190D01*
X29995238Y-121202380D01*
X30019047Y-121178571D01*
X30042857Y-121130952D01*
X30042857Y-121011904D01*
X30019047Y-120964285D01*
X29995238Y-120940476D01*
X29947619Y-120916666D01*
X29852380Y-120916666D01*
X29804761Y-120940476D01*
X29780952Y-120964285D01*
X29757142Y-121011904D01*
G04 #@! TO.C,DZ1*
X34042857Y-120826190D02*
X34042857Y-120326190D01*
X34161904Y-120326190D01*
X34233333Y-120350000D01*
X34280952Y-120397619D01*
X34304761Y-120445238D01*
X34328571Y-120540476D01*
X34328571Y-120611904D01*
X34304761Y-120707142D01*
X34280952Y-120754761D01*
X34233333Y-120802380D01*
X34161904Y-120826190D01*
X34042857Y-120826190D01*
X34495238Y-120326190D02*
X34828571Y-120326190D01*
X34495238Y-120826190D01*
X34828571Y-120826190D01*
X35280952Y-120826190D02*
X34995238Y-120826190D01*
X35138095Y-120826190D02*
X35138095Y-120326190D01*
X35090476Y-120397619D01*
X35042857Y-120445238D01*
X34995238Y-120469047D01*
G04 #@! TO.C,D2*
X34630952Y-106876190D02*
X34630952Y-106376190D01*
X34750000Y-106376190D01*
X34821428Y-106400000D01*
X34869047Y-106447619D01*
X34892857Y-106495238D01*
X34916666Y-106590476D01*
X34916666Y-106661904D01*
X34892857Y-106757142D01*
X34869047Y-106804761D01*
X34821428Y-106852380D01*
X34750000Y-106876190D01*
X34630952Y-106876190D01*
X35107142Y-106423809D02*
X35130952Y-106400000D01*
X35178571Y-106376190D01*
X35297619Y-106376190D01*
X35345238Y-106400000D01*
X35369047Y-106423809D01*
X35392857Y-106471428D01*
X35392857Y-106519047D01*
X35369047Y-106590476D01*
X35083333Y-106876190D01*
X35392857Y-106876190D01*
D12*
G04 #@! TO.C,J0*
X26545000Y-103070000D02*
X36765000Y-103070000D01*
X23945000Y-105730000D02*
X23945000Y-104400000D01*
X26545000Y-105730000D02*
X36765000Y-105730000D01*
X36765000Y-105730000D02*
X36765000Y-103070000D01*
X26545000Y-105730000D02*
X26545000Y-103070000D01*
X25275000Y-105730000D02*
X23945000Y-105730000D01*
G04 #@! TO.C,R4*
X28477064Y-119735000D02*
X28022936Y-119735000D01*
X28477064Y-118265000D02*
X28022936Y-118265000D01*
G04 #@! TO.C,C2b0*
X25061252Y-123735000D02*
X24538748Y-123735000D01*
X25061252Y-122265000D02*
X24538748Y-122265000D01*
G04 #@! TO.C,D4*
X31450000Y-112200000D02*
X37150000Y-112200000D01*
X31450000Y-112200000D02*
X31450000Y-116500000D01*
X31450000Y-116500000D02*
X37150000Y-116500000D01*
G04 #@! TO.C,D1*
X24000000Y-111800000D02*
X29700000Y-111800000D01*
X24000000Y-107500000D02*
X29700000Y-107500000D01*
X24000000Y-107500000D02*
X24000000Y-111800000D01*
G04 #@! TO.C,J2*
X41190000Y-109270000D02*
X43850000Y-109270000D01*
X43850000Y-109270000D02*
X43850000Y-127110000D01*
X41190000Y-106670000D02*
X42520000Y-106670000D01*
X41190000Y-127110000D02*
X43850000Y-127110000D01*
X41190000Y-109270000D02*
X41190000Y-127110000D01*
X41190000Y-108000000D02*
X41190000Y-106670000D01*
G04 #@! TO.C,J1*
X18670000Y-108000000D02*
X18670000Y-106670000D01*
X18670000Y-109270000D02*
X21330000Y-109270000D01*
X18670000Y-127110000D02*
X21330000Y-127110000D01*
X18670000Y-106670000D02*
X20000000Y-106670000D01*
X18670000Y-109270000D02*
X18670000Y-127110000D01*
X21330000Y-109270000D02*
X21330000Y-127110000D01*
G04 #@! TO.C,J4*
X25925000Y-130780000D02*
X24595000Y-130780000D01*
X27195000Y-130780000D02*
X37415000Y-130780000D01*
X27195000Y-130780000D02*
X27195000Y-128120000D01*
X37415000Y-130780000D02*
X37415000Y-128120000D01*
X24595000Y-130780000D02*
X24595000Y-129450000D01*
X27195000Y-128120000D02*
X37415000Y-128120000D01*
G04 #@! TO.C,C2b1*
X23238748Y-121185000D02*
X23761252Y-121185000D01*
X23238748Y-119715000D02*
X23761252Y-119715000D01*
G04 #@! TO.C,D3*
X23950000Y-112200000D02*
X23950000Y-116500000D01*
X23950000Y-112200000D02*
X29650000Y-112200000D01*
X23950000Y-116500000D02*
X29650000Y-116500000D01*
G04 #@! TO.C,R5*
X33177064Y-118985000D02*
X32722936Y-118985000D01*
X33177064Y-117515000D02*
X32722936Y-117515000D01*
G04 #@! TO.C,C1*
X21580000Y-111730000D02*
X21580000Y-122970000D01*
X21580000Y-111730000D02*
X40820000Y-111730000D01*
X40820000Y-111730000D02*
X40820000Y-122970000D01*
X21580000Y-122970000D02*
X40820000Y-122970000D01*
G04 #@! TO.C,J3*
X26815000Y-124820000D02*
X26815000Y-127480000D01*
X33225000Y-124820000D02*
X34555000Y-124820000D01*
X31955000Y-124820000D02*
X31955000Y-127480000D01*
X31955000Y-127480000D02*
X26815000Y-127480000D01*
X34555000Y-124820000D02*
X34555000Y-126150000D01*
X31955000Y-124820000D02*
X26815000Y-124820000D01*
G04 #@! TO.C,R6*
X29877064Y-121215000D02*
X29422936Y-121215000D01*
X29877064Y-122685000D02*
X29422936Y-122685000D01*
G04 #@! TO.C,DZ1*
X32200000Y-123000000D02*
X36100000Y-123000000D01*
X32200000Y-121000000D02*
X36100000Y-121000000D01*
X32200000Y-121000000D02*
X32200000Y-123000000D01*
G04 #@! TO.C,D2*
X31450000Y-111800000D02*
X37150000Y-111800000D01*
X31450000Y-107500000D02*
X31450000Y-111800000D01*
X31450000Y-107500000D02*
X37150000Y-107500000D01*
G04 #@! TD*
M02*
