M48
INCH,TZ
T1C0.0157
T2C0.0315
T3C0.0394
T4C0.0472
%
G90
G05
T1
X11850Y-38012
X12421Y-37382
X13721Y-37343
X14469Y-35079
X14902Y-36575
X15531Y-32500
X15945Y-35492
X16102Y-32657
T2
X8406Y-39016
X9193Y-39016
X9980Y-39016
X10768Y-39016
X11555Y-39016
T3
X8583Y-34567
X8583Y-35567
X8583Y-36567
X17224Y-33409
X17224Y-34409
X17224Y-35409
X17224Y-36409
X17224Y-37409
T4
X14173Y-32795
X14173Y-38701
T0
M30
