G04 #@! TF.GenerationSoftware,KiCad,Pcbnew,(6.0.11)*
G04 #@! TF.CreationDate,2023-03-09T13:47:02+01:00*
G04 #@! TF.ProjectId,PCB_Dongle_Linky,5043425f-446f-46e6-976c-655f4c696e6b,rev?*
G04 #@! TF.SameCoordinates,Original*
G04 #@! TF.FileFunction,Copper,L2,Bot*
G04 #@! TF.FilePolarity,Positive*
%FSLAX46Y46*%
G04 Gerber Fmt 4.6, Leading zero omitted, Abs format (unit mm)*
G04 Created by KiCad (PCBNEW (6.0.11)) date 2023-03-09 13:47:02*
%MOMM*%
%LPD*%
G01*
G04 APERTURE LIST*
G04 Aperture macros list*
%AMRoundRect*
0 Rectangle with rounded corners*
0 $1 Rounding radius*
0 $2 $3 $4 $5 $6 $7 $8 $9 X,Y pos of 4 corners*
0 Add a 4 corners polygon primitive as box body*
4,1,4,$2,$3,$4,$5,$6,$7,$8,$9,$2,$3,0*
0 Add four circle primitives for the rounded corners*
1,1,$1+$1,$2,$3*
1,1,$1+$1,$4,$5*
1,1,$1+$1,$6,$7*
1,1,$1+$1,$8,$9*
0 Add four rect primitives between the rounded corners*
20,1,$1+$1,$2,$3,$4,$5,0*
20,1,$1+$1,$4,$5,$6,$7,0*
20,1,$1+$1,$6,$7,$8,$9,0*
20,1,$1+$1,$8,$9,$2,$3,0*%
G04 Aperture macros list end*
G04 #@! TA.AperFunction,ComponentPad*
%ADD10R,1.700000X1.700000*%
G04 #@! TD*
G04 #@! TA.AperFunction,ComponentPad*
%ADD11O,1.700000X1.700000*%
G04 #@! TD*
G04 #@! TA.AperFunction,ComponentPad*
%ADD12R,1.350000X1.350000*%
G04 #@! TD*
G04 #@! TA.AperFunction,ComponentPad*
%ADD13O,1.350000X1.350000*%
G04 #@! TD*
G04 #@! TA.AperFunction,ComponentPad*
%ADD14C,2.400000*%
G04 #@! TD*
G04 #@! TA.AperFunction,SMDPad,CuDef*
%ADD15R,1.780000X1.500000*%
G04 #@! TD*
G04 #@! TA.AperFunction,SMDPad,CuDef*
%ADD16RoundRect,0.150000X-0.587500X-0.150000X0.587500X-0.150000X0.587500X0.150000X-0.587500X0.150000X0*%
G04 #@! TD*
G04 #@! TA.AperFunction,SMDPad,CuDef*
%ADD17RoundRect,0.250000X-0.262500X-0.450000X0.262500X-0.450000X0.262500X0.450000X-0.262500X0.450000X0*%
G04 #@! TD*
G04 #@! TA.AperFunction,SMDPad,CuDef*
%ADD18R,2.000000X1.500000*%
G04 #@! TD*
G04 #@! TA.AperFunction,SMDPad,CuDef*
%ADD19R,2.000000X3.800000*%
G04 #@! TD*
G04 #@! TA.AperFunction,SMDPad,CuDef*
%ADD20RoundRect,0.150000X-0.150000X0.587500X-0.150000X-0.587500X0.150000X-0.587500X0.150000X0.587500X0*%
G04 #@! TD*
G04 #@! TA.AperFunction,SMDPad,CuDef*
%ADD21RoundRect,0.250000X-0.450000X0.262500X-0.450000X-0.262500X0.450000X-0.262500X0.450000X0.262500X0*%
G04 #@! TD*
G04 #@! TA.AperFunction,SMDPad,CuDef*
%ADD22RoundRect,0.150000X0.825000X0.150000X-0.825000X0.150000X-0.825000X-0.150000X0.825000X-0.150000X0*%
G04 #@! TD*
G04 #@! TA.AperFunction,ViaPad*
%ADD23C,0.800000*%
G04 #@! TD*
G04 #@! TA.AperFunction,Conductor*
%ADD24C,0.500000*%
G04 #@! TD*
G04 #@! TA.AperFunction,Conductor*
%ADD25C,0.300000*%
G04 #@! TD*
G04 APERTURE END LIST*
D10*
G04 #@! TO.P,J0,1,Pin_1*
G04 #@! TO.N,A*
X21800000Y-87800000D03*
D11*
G04 #@! TO.P,J0,2,Pin_2*
G04 #@! TO.N,I1*
X21800000Y-90340000D03*
G04 #@! TO.P,J0,3,Pin_3*
G04 #@! TO.N,I2*
X21800000Y-92880000D03*
G04 #@! TD*
D12*
G04 #@! TO.P,J1,1,Pin_1*
G04 #@! TO.N,+3.3V*
X29350000Y-99100000D03*
D13*
G04 #@! TO.P,J1,2,Pin_2*
G04 #@! TO.N,Net-(J1-Pad2)*
X27350000Y-99100000D03*
G04 #@! TO.P,J1,3,Pin_3*
G04 #@! TO.N,Net-(J1-Pad3)*
X25350000Y-99100000D03*
G04 #@! TO.P,J1,4,Pin_4*
G04 #@! TO.N,GND*
X23350000Y-99100000D03*
G04 #@! TO.P,J1,5,Pin_5*
G04 #@! TO.N,GND1*
X21350000Y-99100000D03*
G04 #@! TD*
D10*
G04 #@! TO.P,J4,1,Pin_1*
G04 #@! TO.N,Net-(J4-Pad1)*
X43750000Y-84860000D03*
D11*
G04 #@! TO.P,J4,2,Pin_2*
G04 #@! TO.N,VCC*
X43750000Y-87400000D03*
G04 #@! TO.P,J4,3,Pin_3*
G04 #@! TO.N,GND*
X43750000Y-89940000D03*
G04 #@! TO.P,J4,4,Pin_4*
G04 #@! TO.N,Net-(DZ1-Pad1)*
X43750000Y-92480000D03*
G04 #@! TO.P,J4,5,Pin_5*
G04 #@! TO.N,Net-(J4-Pad5)*
X43750000Y-95020000D03*
G04 #@! TD*
D14*
G04 #@! TO.P,C1,1*
G04 #@! TO.N,VCC*
X36000000Y-98300000D03*
G04 #@! TO.P,C1,2*
G04 #@! TO.N,GND*
X36000000Y-83300000D03*
G04 #@! TD*
D15*
G04 #@! TO.P,U1,1*
G04 #@! TO.N,Net-(R1-Pad2)*
X28240000Y-91915000D03*
G04 #@! TO.P,U1,2*
G04 #@! TO.N,I2*
X25700000Y-91915000D03*
G04 #@! TO.P,U1,3*
G04 #@! TO.N,Net-(Q1-Pad1)*
X25700000Y-82385000D03*
G04 #@! TO.P,U1,4*
G04 #@! TO.N,+3.3V*
X28240000Y-82385000D03*
G04 #@! TD*
D16*
G04 #@! TO.P,Q2,1,G*
G04 #@! TO.N,Net-(Q2-Pad1)*
X39000000Y-99600000D03*
G04 #@! TO.P,Q2,2,S*
G04 #@! TO.N,GND*
X39000000Y-97700000D03*
G04 #@! TO.P,Q2,3,D*
G04 #@! TO.N,GND1*
X40875000Y-98650000D03*
G04 #@! TD*
D17*
G04 #@! TO.P,R1,1*
G04 #@! TO.N,I1*
X21187500Y-94850000D03*
G04 #@! TO.P,R1,2*
G04 #@! TO.N,Net-(R1-Pad2)*
X23012500Y-94850000D03*
G04 #@! TD*
D18*
G04 #@! TO.P,U2,1,VI*
G04 #@! TO.N,VCC*
X33200000Y-95950000D03*
G04 #@! TO.P,U2,2,GND*
G04 #@! TO.N,GND1*
X33200000Y-93650000D03*
D19*
X39500000Y-93650000D03*
D18*
G04 #@! TO.P,U2,3,VO*
G04 #@! TO.N,+3.3V*
X33200000Y-91350000D03*
G04 #@! TD*
D20*
G04 #@! TO.P,Q1,1,G*
G04 #@! TO.N,Net-(Q1-Pad1)*
X27050000Y-94700000D03*
G04 #@! TO.P,Q1,2,S*
G04 #@! TO.N,GND1*
X28950000Y-94700000D03*
G04 #@! TO.P,Q1,3,D*
G04 #@! TO.N,Net-(J1-Pad2)*
X28000000Y-96575000D03*
G04 #@! TD*
D21*
G04 #@! TO.P,R2,1*
G04 #@! TO.N,GND1*
X24950000Y-94887500D03*
G04 #@! TO.P,R2,2*
G04 #@! TO.N,Net-(Q1-Pad1)*
X24950000Y-96712500D03*
G04 #@! TD*
D17*
G04 #@! TO.P,R3,1*
G04 #@! TO.N,Net-(J1-Pad2)*
X31187500Y-98200000D03*
G04 #@! TO.P,R3,2*
G04 #@! TO.N,+3.3V*
X33012500Y-98200000D03*
G04 #@! TD*
D22*
G04 #@! TO.P,U3,1,VDD*
G04 #@! TO.N,VCC*
X38450000Y-85430000D03*
G04 #@! TO.P,U3,2,RA5*
G04 #@! TO.N,unconnected-(U3-Pad2)*
X38450000Y-86700000D03*
G04 #@! TO.P,U3,3,RA4*
G04 #@! TO.N,unconnected-(U3-Pad3)*
X38450000Y-87970000D03*
G04 #@! TO.P,U3,4,RA3*
G04 #@! TO.N,Net-(J4-Pad1)*
X38450000Y-89240000D03*
G04 #@! TO.P,U3,5,RA2*
G04 #@! TO.N,Net-(Q2-Pad1)*
X33500000Y-89240000D03*
G04 #@! TO.P,U3,6,RA1*
G04 #@! TO.N,Net-(J4-Pad5)*
X33500000Y-87970000D03*
G04 #@! TO.P,U3,7,RA0*
G04 #@! TO.N,Net-(DZ1-Pad1)*
X33500000Y-86700000D03*
G04 #@! TO.P,U3,8,VSS*
G04 #@! TO.N,GND*
X33500000Y-85430000D03*
G04 #@! TD*
D23*
G04 #@! TO.N,VCC*
X31550000Y-94950000D03*
X40900000Y-82950000D03*
X34850500Y-94850000D03*
G04 #@! TO.N,Net-(DZ1-Pad1)*
X40500000Y-90150000D03*
G04 #@! TO.N,GND1*
X30100000Y-96550000D03*
X37850000Y-92900000D03*
G04 #@! TO.N,Net-(J4-Pad1)*
X39450000Y-82550000D03*
G04 #@! TO.N,Net-(J4-Pad5)*
X36750000Y-89100000D03*
G04 #@! TD*
D24*
G04 #@! TO.N,VCC*
X38450000Y-85430000D02*
X40830000Y-85430000D01*
D25*
X34850500Y-95249500D02*
X34150000Y-95950000D01*
X34150000Y-95950000D02*
X33200000Y-95950000D01*
X31550000Y-94950000D02*
X32550000Y-95950000D01*
D24*
X40900000Y-85400000D02*
X40900000Y-82950000D01*
D25*
X32550000Y-95950000D02*
X33200000Y-95950000D01*
X34850500Y-94850000D02*
X34850500Y-95249500D01*
D24*
X40830000Y-85430000D02*
X40850000Y-85450000D01*
X43250000Y-87400000D02*
X43750000Y-87400000D01*
X40850000Y-85450000D02*
X40900000Y-85400000D01*
D25*
G04 #@! TO.N,GND*
X37325000Y-100125000D02*
X37550000Y-100350000D01*
X42200000Y-95800000D02*
X42200000Y-90400000D01*
X23350000Y-99100000D02*
X24375000Y-100125000D01*
D24*
X33500000Y-85430000D02*
X33870000Y-85430000D01*
D25*
X37325000Y-100125000D02*
X37325000Y-99375000D01*
X37325000Y-99375000D02*
X39000000Y-97700000D01*
X43000000Y-99250000D02*
X43000000Y-96600000D01*
X42660000Y-89940000D02*
X43750000Y-89940000D01*
X41900000Y-100350000D02*
X43000000Y-99250000D01*
X42200000Y-90400000D02*
X42660000Y-89940000D01*
X24375000Y-100125000D02*
X37325000Y-100125000D01*
X43000000Y-96600000D02*
X42200000Y-95800000D01*
X37550000Y-100350000D02*
X41900000Y-100350000D01*
D24*
X33870000Y-85430000D02*
X36000000Y-83300000D01*
D25*
G04 #@! TO.N,I1*
X21060000Y-90340000D02*
X20300000Y-91100000D01*
X20300000Y-94200000D02*
X20450000Y-94350000D01*
X20450000Y-94350000D02*
X21287500Y-94350000D01*
X21800000Y-90340000D02*
X21060000Y-90340000D01*
X20300000Y-91100000D02*
X20300000Y-94200000D01*
G04 #@! TO.N,Net-(DZ1-Pad1)*
X33500000Y-86700000D02*
X32050000Y-86700000D01*
X41700000Y-88950000D02*
X40500000Y-90150000D01*
X34100000Y-81700000D02*
X40850000Y-81700000D01*
X32050000Y-86700000D02*
X31550000Y-86200000D01*
X41700000Y-82550000D02*
X41700000Y-88950000D01*
X31550000Y-86200000D02*
X31550000Y-84250000D01*
X40850000Y-81700000D02*
X41700000Y-82550000D01*
X31550000Y-84250000D02*
X34100000Y-81700000D01*
G04 #@! TO.N,I2*
X24365000Y-91915000D02*
X25700000Y-91915000D01*
X24250000Y-91800000D02*
X24365000Y-91915000D01*
X21800000Y-92880000D02*
X23170000Y-92880000D01*
X23170000Y-92880000D02*
X24250000Y-91800000D01*
G04 #@! TO.N,+3.3V*
X35600000Y-92600000D02*
X34350000Y-91350000D01*
X32500000Y-99500000D02*
X29750000Y-99500000D01*
X29750000Y-99500000D02*
X29350000Y-99100000D01*
X33012500Y-98200000D02*
X33012500Y-98987500D01*
X33012500Y-98987500D02*
X32500000Y-99500000D01*
X28240000Y-82385000D02*
X28240000Y-87840000D01*
X33012500Y-98200000D02*
X33400000Y-98200000D01*
X34350000Y-91350000D02*
X33200000Y-91350000D01*
X31750000Y-91350000D02*
X33200000Y-91350000D01*
X28240000Y-87840000D02*
X31750000Y-91350000D01*
X35600000Y-96000000D02*
X35600000Y-92600000D01*
X33400000Y-98200000D02*
X35600000Y-96000000D01*
G04 #@! TO.N,Net-(J1-Pad2)*
X31187500Y-98200000D02*
X30750000Y-98200000D01*
X28000000Y-96575000D02*
X28000000Y-97650000D01*
X28000000Y-98450000D02*
X27350000Y-99100000D01*
X30750000Y-98200000D02*
X30200000Y-97650000D01*
X28000000Y-97650000D02*
X28000000Y-98450000D01*
X30200000Y-97650000D02*
X28000000Y-97650000D01*
G04 #@! TO.N,GND1*
X38750000Y-92900000D02*
X39500000Y-93650000D01*
X30550000Y-93650000D02*
X33200000Y-93650000D01*
X24950000Y-94887500D02*
X24612500Y-94887500D01*
X30550000Y-96100000D02*
X30550000Y-93650000D01*
X21350000Y-98150000D02*
X21350000Y-99100000D01*
X28950000Y-94700000D02*
X30000000Y-93650000D01*
X39500000Y-93650000D02*
X40875000Y-95025000D01*
X30100000Y-96550000D02*
X30550000Y-96100000D01*
X40875000Y-95025000D02*
X40875000Y-98650000D01*
X30000000Y-93650000D02*
X30550000Y-93650000D01*
X24612500Y-94887500D02*
X21350000Y-98150000D01*
X37850000Y-92900000D02*
X38750000Y-92900000D01*
G04 #@! TO.N,Net-(J4-Pad1)*
X38450000Y-89240000D02*
X38037893Y-89240000D01*
X38037893Y-89240000D02*
X36700000Y-87902107D01*
X36700000Y-87902107D02*
X36700000Y-85000000D01*
X39150000Y-82550000D02*
X39450000Y-82550000D01*
X36700000Y-85000000D02*
X39150000Y-82550000D01*
G04 #@! TO.N,Net-(J4-Pad5)*
X36750000Y-89100000D02*
X35550000Y-89100000D01*
X35550000Y-89100000D02*
X34420000Y-87970000D01*
X34420000Y-87970000D02*
X33500000Y-87970000D01*
G04 #@! TO.N,Net-(Q1-Pad1)*
X29950000Y-92600000D02*
X29100000Y-93450000D01*
X27050000Y-94700000D02*
X26962500Y-94700000D01*
X25700000Y-82385000D02*
X25700000Y-86400000D01*
X29100000Y-93450000D02*
X27750000Y-93450000D01*
X27050000Y-94150000D02*
X27050000Y-94700000D01*
X26962500Y-94700000D02*
X24950000Y-96712500D01*
X27750000Y-93450000D02*
X27050000Y-94150000D01*
X25700000Y-86400000D02*
X29950000Y-90650000D01*
X29950000Y-90650000D02*
X29950000Y-92600000D01*
G04 #@! TO.N,Net-(Q2-Pad1)*
X42150000Y-96750000D02*
X41400000Y-96000000D01*
X41400000Y-91200000D02*
X41150000Y-90950000D01*
X39000000Y-99600000D02*
X41650000Y-99600000D01*
X41650000Y-99600000D02*
X42150000Y-99100000D01*
X42150000Y-99100000D02*
X42150000Y-96750000D01*
X41150000Y-90950000D02*
X36250000Y-90950000D01*
X41400000Y-96000000D02*
X41400000Y-91200000D01*
X34540000Y-89240000D02*
X33500000Y-89240000D01*
X36250000Y-90950000D02*
X34540000Y-89240000D01*
G04 #@! TO.N,Net-(R1-Pad2)*
X23400000Y-94350000D02*
X24400000Y-93350000D01*
X23112500Y-94350000D02*
X23400000Y-94350000D01*
X24400000Y-93350000D02*
X26805000Y-93350000D01*
X26805000Y-93350000D02*
X28240000Y-91915000D01*
G04 #@! TD*
M02*
