G04 #@! TF.GenerationSoftware,KiCad,Pcbnew,(6.0.11)*
G04 #@! TF.CreationDate,2023-03-09T13:47:02+01:00*
G04 #@! TF.ProjectId,PCB_Dongle_Linky,5043425f-446f-46e6-976c-655f4c696e6b,rev?*
G04 #@! TF.SameCoordinates,Original*
G04 #@! TF.FileFunction,Legend,Bot*
G04 #@! TF.FilePolarity,Positive*
%FSLAX46Y46*%
G04 Gerber Fmt 4.6, Leading zero omitted, Abs format (unit mm)*
G04 Created by KiCad (PCBNEW (6.0.11)) date 2023-03-09 13:47:02*
%MOMM*%
%LPD*%
G01*
G04 APERTURE LIST*
%ADD10C,0.075000*%
%ADD11C,0.125000*%
%ADD12C,0.120000*%
G04 APERTURE END LIST*
D10*
X29735714Y-92085714D02*
X29735714Y-91914285D01*
X29735714Y-92000000D02*
X29435714Y-92000000D01*
X29478571Y-91971428D01*
X29507142Y-91942857D01*
X29521428Y-91914285D01*
X36385714Y-92128571D02*
X36085714Y-92128571D01*
X36300000Y-92228571D01*
X36085714Y-92328571D01*
X36385714Y-92328571D01*
X36357142Y-92642857D02*
X36371428Y-92628571D01*
X36385714Y-92585714D01*
X36385714Y-92557142D01*
X36371428Y-92514285D01*
X36342857Y-92485714D01*
X36314285Y-92471428D01*
X36257142Y-92457142D01*
X36214285Y-92457142D01*
X36157142Y-92471428D01*
X36128571Y-92485714D01*
X36100000Y-92514285D01*
X36085714Y-92557142D01*
X36085714Y-92585714D01*
X36100000Y-92628571D01*
X36114285Y-92642857D01*
X36385714Y-92771428D02*
X36085714Y-92771428D01*
X36085714Y-92885714D01*
X36100000Y-92914285D01*
X36114285Y-92928571D01*
X36142857Y-92942857D01*
X36185714Y-92942857D01*
X36214285Y-92928571D01*
X36228571Y-92914285D01*
X36242857Y-92885714D01*
X36242857Y-92771428D01*
X36385714Y-93228571D02*
X36385714Y-93057142D01*
X36385714Y-93142857D02*
X36085714Y-93142857D01*
X36128571Y-93114285D01*
X36157142Y-93085714D01*
X36171428Y-93057142D01*
X36214285Y-93400000D02*
X36200000Y-93371428D01*
X36185714Y-93357142D01*
X36157142Y-93342857D01*
X36142857Y-93342857D01*
X36114285Y-93357142D01*
X36100000Y-93371428D01*
X36085714Y-93400000D01*
X36085714Y-93457142D01*
X36100000Y-93485714D01*
X36114285Y-93500000D01*
X36142857Y-93514285D01*
X36157142Y-93514285D01*
X36185714Y-93500000D01*
X36200000Y-93485714D01*
X36214285Y-93457142D01*
X36214285Y-93400000D01*
X36228571Y-93371428D01*
X36242857Y-93357142D01*
X36271428Y-93342857D01*
X36328571Y-93342857D01*
X36357142Y-93357142D01*
X36371428Y-93371428D01*
X36385714Y-93400000D01*
X36385714Y-93457142D01*
X36371428Y-93485714D01*
X36357142Y-93500000D01*
X36328571Y-93514285D01*
X36271428Y-93514285D01*
X36242857Y-93500000D01*
X36228571Y-93485714D01*
X36214285Y-93457142D01*
X36114285Y-93628571D02*
X36100000Y-93642857D01*
X36085714Y-93671428D01*
X36085714Y-93742857D01*
X36100000Y-93771428D01*
X36114285Y-93785714D01*
X36142857Y-93800000D01*
X36171428Y-93800000D01*
X36214285Y-93785714D01*
X36385714Y-93614285D01*
X36385714Y-93800000D01*
X36085714Y-94057142D02*
X36085714Y-94000000D01*
X36100000Y-93971428D01*
X36114285Y-93957142D01*
X36157142Y-93928571D01*
X36214285Y-93914285D01*
X36328571Y-93914285D01*
X36357142Y-93928571D01*
X36371428Y-93942857D01*
X36385714Y-93971428D01*
X36385714Y-94028571D01*
X36371428Y-94057142D01*
X36357142Y-94071428D01*
X36328571Y-94085714D01*
X36257142Y-94085714D01*
X36228571Y-94071428D01*
X36214285Y-94057142D01*
X36200000Y-94028571D01*
X36200000Y-93971428D01*
X36214285Y-93942857D01*
X36228571Y-93928571D01*
X36257142Y-93914285D01*
X36685714Y-87085714D02*
X36685714Y-86785714D01*
X36571428Y-86785714D01*
X36542857Y-86800000D01*
X36528571Y-86814285D01*
X36514285Y-86842857D01*
X36514285Y-86885714D01*
X36528571Y-86914285D01*
X36542857Y-86928571D01*
X36571428Y-86942857D01*
X36685714Y-86942857D01*
X36385714Y-87085714D02*
X36385714Y-86885714D01*
X36385714Y-86785714D02*
X36400000Y-86800000D01*
X36385714Y-86814285D01*
X36371428Y-86800000D01*
X36385714Y-86785714D01*
X36385714Y-86814285D01*
X36242857Y-87085714D02*
X36242857Y-86785714D01*
X35928571Y-87057142D02*
X35942857Y-87071428D01*
X35985714Y-87085714D01*
X36014285Y-87085714D01*
X36057142Y-87071428D01*
X36085714Y-87042857D01*
X36100000Y-87014285D01*
X36114285Y-86957142D01*
X36114285Y-86914285D01*
X36100000Y-86857142D01*
X36085714Y-86828571D01*
X36057142Y-86800000D01*
X36014285Y-86785714D01*
X35985714Y-86785714D01*
X35942857Y-86800000D01*
X35928571Y-86814285D01*
X35642857Y-87085714D02*
X35814285Y-87085714D01*
X35728571Y-87085714D02*
X35728571Y-86785714D01*
X35757142Y-86828571D01*
X35785714Y-86857142D01*
X35814285Y-86871428D01*
X35528571Y-86814285D02*
X35514285Y-86800000D01*
X35485714Y-86785714D01*
X35414285Y-86785714D01*
X35385714Y-86800000D01*
X35371428Y-86814285D01*
X35357142Y-86842857D01*
X35357142Y-86871428D01*
X35371428Y-86914285D01*
X35542857Y-87085714D01*
X35357142Y-87085714D01*
X35128571Y-86928571D02*
X35228571Y-86928571D01*
X35228571Y-87085714D02*
X35228571Y-86785714D01*
X35085714Y-86785714D01*
D11*
G04 #@! TO.C,U1*
X29976190Y-86769047D02*
X30380952Y-86769047D01*
X30428571Y-86792857D01*
X30452380Y-86816666D01*
X30476190Y-86864285D01*
X30476190Y-86959523D01*
X30452380Y-87007142D01*
X30428571Y-87030952D01*
X30380952Y-87054761D01*
X29976190Y-87054761D01*
X30476190Y-87554761D02*
X30476190Y-87269047D01*
X30476190Y-87411904D02*
X29976190Y-87411904D01*
X30047619Y-87364285D01*
X30095238Y-87316666D01*
X30119047Y-87269047D01*
G04 #@! TO.C,Q2*
X42323809Y-99902380D02*
X42300000Y-99854761D01*
X42252380Y-99807142D01*
X42180952Y-99735714D01*
X42157142Y-99688095D01*
X42157142Y-99640476D01*
X42276190Y-99664285D02*
X42252380Y-99616666D01*
X42204761Y-99569047D01*
X42109523Y-99545238D01*
X41942857Y-99545238D01*
X41847619Y-99569047D01*
X41800000Y-99616666D01*
X41776190Y-99664285D01*
X41776190Y-99759523D01*
X41800000Y-99807142D01*
X41847619Y-99854761D01*
X41942857Y-99878571D01*
X42109523Y-99878571D01*
X42204761Y-99854761D01*
X42252380Y-99807142D01*
X42276190Y-99759523D01*
X42276190Y-99664285D01*
X41823809Y-100069047D02*
X41800000Y-100092857D01*
X41776190Y-100140476D01*
X41776190Y-100259523D01*
X41800000Y-100307142D01*
X41823809Y-100330952D01*
X41871428Y-100354761D01*
X41919047Y-100354761D01*
X41990476Y-100330952D01*
X42276190Y-100045238D01*
X42276190Y-100354761D01*
G04 #@! TO.C,R1*
X22083333Y-96326190D02*
X22250000Y-96088095D01*
X22369047Y-96326190D02*
X22369047Y-95826190D01*
X22178571Y-95826190D01*
X22130952Y-95850000D01*
X22107142Y-95873809D01*
X22083333Y-95921428D01*
X22083333Y-95992857D01*
X22107142Y-96040476D01*
X22130952Y-96064285D01*
X22178571Y-96088095D01*
X22369047Y-96088095D01*
X21607142Y-96326190D02*
X21892857Y-96326190D01*
X21750000Y-96326190D02*
X21750000Y-95826190D01*
X21797619Y-95897619D01*
X21845238Y-95945238D01*
X21892857Y-95969047D01*
G04 #@! TO.C,U2*
X35976190Y-94519047D02*
X36380952Y-94519047D01*
X36428571Y-94542857D01*
X36452380Y-94566666D01*
X36476190Y-94614285D01*
X36476190Y-94709523D01*
X36452380Y-94757142D01*
X36428571Y-94780952D01*
X36380952Y-94804761D01*
X35976190Y-94804761D01*
X36023809Y-95019047D02*
X36000000Y-95042857D01*
X35976190Y-95090476D01*
X35976190Y-95209523D01*
X36000000Y-95257142D01*
X36023809Y-95280952D01*
X36071428Y-95304761D01*
X36119047Y-95304761D01*
X36190476Y-95280952D01*
X36476190Y-94995238D01*
X36476190Y-95304761D01*
G04 #@! TO.C,Q1*
X26697619Y-97523809D02*
X26745238Y-97500000D01*
X26792857Y-97452380D01*
X26864285Y-97380952D01*
X26911904Y-97357142D01*
X26959523Y-97357142D01*
X26935714Y-97476190D02*
X26983333Y-97452380D01*
X27030952Y-97404761D01*
X27054761Y-97309523D01*
X27054761Y-97142857D01*
X27030952Y-97047619D01*
X26983333Y-97000000D01*
X26935714Y-96976190D01*
X26840476Y-96976190D01*
X26792857Y-97000000D01*
X26745238Y-97047619D01*
X26721428Y-97142857D01*
X26721428Y-97309523D01*
X26745238Y-97404761D01*
X26792857Y-97452380D01*
X26840476Y-97476190D01*
X26935714Y-97476190D01*
X26245238Y-97476190D02*
X26530952Y-97476190D01*
X26388095Y-97476190D02*
X26388095Y-96976190D01*
X26435714Y-97047619D01*
X26483333Y-97095238D01*
X26530952Y-97119047D01*
G04 #@! TO.C,R2*
X23926190Y-95816666D02*
X23688095Y-95650000D01*
X23926190Y-95530952D02*
X23426190Y-95530952D01*
X23426190Y-95721428D01*
X23450000Y-95769047D01*
X23473809Y-95792857D01*
X23521428Y-95816666D01*
X23592857Y-95816666D01*
X23640476Y-95792857D01*
X23664285Y-95769047D01*
X23688095Y-95721428D01*
X23688095Y-95530952D01*
X23473809Y-96007142D02*
X23450000Y-96030952D01*
X23426190Y-96078571D01*
X23426190Y-96197619D01*
X23450000Y-96245238D01*
X23473809Y-96269047D01*
X23521428Y-96292857D01*
X23569047Y-96292857D01*
X23640476Y-96269047D01*
X23926190Y-95983333D01*
X23926190Y-96292857D01*
G04 #@! TO.C,R3*
X32183333Y-99676190D02*
X32350000Y-99438095D01*
X32469047Y-99676190D02*
X32469047Y-99176190D01*
X32278571Y-99176190D01*
X32230952Y-99200000D01*
X32207142Y-99223809D01*
X32183333Y-99271428D01*
X32183333Y-99342857D01*
X32207142Y-99390476D01*
X32230952Y-99414285D01*
X32278571Y-99438095D01*
X32469047Y-99438095D01*
X32016666Y-99176190D02*
X31707142Y-99176190D01*
X31873809Y-99366666D01*
X31802380Y-99366666D01*
X31754761Y-99390476D01*
X31730952Y-99414285D01*
X31707142Y-99461904D01*
X31707142Y-99580952D01*
X31730952Y-99628571D01*
X31754761Y-99652380D01*
X31802380Y-99676190D01*
X31945238Y-99676190D01*
X31992857Y-99652380D01*
X32016666Y-99628571D01*
G04 #@! TO.C,U3*
X35426190Y-87669047D02*
X35830952Y-87669047D01*
X35878571Y-87692857D01*
X35902380Y-87716666D01*
X35926190Y-87764285D01*
X35926190Y-87859523D01*
X35902380Y-87907142D01*
X35878571Y-87930952D01*
X35830952Y-87954761D01*
X35426190Y-87954761D01*
X35426190Y-88145238D02*
X35426190Y-88454761D01*
X35616666Y-88288095D01*
X35616666Y-88359523D01*
X35640476Y-88407142D01*
X35664285Y-88430952D01*
X35711904Y-88454761D01*
X35830952Y-88454761D01*
X35878571Y-88430952D01*
X35902380Y-88407142D01*
X35926190Y-88359523D01*
X35926190Y-88216666D01*
X35902380Y-88169047D01*
X35878571Y-88145238D01*
D12*
G04 #@! TO.C,U1*
X24370000Y-90385000D02*
X24370000Y-83915000D01*
X29570000Y-83915000D02*
X29570000Y-86150000D01*
X24370000Y-83915000D02*
X29570000Y-83915000D01*
X29570000Y-88150000D02*
X29570000Y-90385000D01*
X29570000Y-90385000D02*
X24370000Y-90385000D01*
X29570000Y-86150000D02*
G75*
G03*
X29570000Y-88150000I0J-1000000D01*
G01*
G04 #@! TO.C,Q2*
X39937500Y-100210000D02*
X40587500Y-100210000D01*
X39937500Y-97090000D02*
X39287500Y-97090000D01*
X39937500Y-97090000D02*
X40587500Y-97090000D01*
X39937500Y-100210000D02*
X38262500Y-100210000D01*
G04 #@! TO.C,R1*
X21872936Y-94115000D02*
X22327064Y-94115000D01*
X21872936Y-95585000D02*
X22327064Y-95585000D01*
G04 #@! TO.C,U2*
X32250000Y-97060000D02*
X38260000Y-97060000D01*
X34500000Y-90240000D02*
X38260000Y-90240000D01*
X38260000Y-97060000D02*
X38260000Y-95800000D01*
X38260000Y-90240000D02*
X38260000Y-91500000D01*
G04 #@! TO.C,Q1*
X29560000Y-95637500D02*
X29560000Y-96287500D01*
X26440000Y-95637500D02*
X26440000Y-93962500D01*
X26440000Y-95637500D02*
X26440000Y-96287500D01*
X29560000Y-95637500D02*
X29560000Y-94987500D01*
G04 #@! TO.C,R2*
X25685000Y-95572936D02*
X25685000Y-96027064D01*
X24215000Y-95572936D02*
X24215000Y-96027064D01*
G04 #@! TO.C,R3*
X31872936Y-97465000D02*
X32327064Y-97465000D01*
X31872936Y-98935000D02*
X32327064Y-98935000D01*
G04 #@! TO.C,U3*
X35975000Y-84775000D02*
X34025000Y-84775000D01*
X35975000Y-84775000D02*
X39425000Y-84775000D01*
X35975000Y-89895000D02*
X37925000Y-89895000D01*
X35975000Y-89895000D02*
X34025000Y-89895000D01*
G04 #@! TD*
M02*
