G04 #@! TF.GenerationSoftware,KiCad,Pcbnew,(6.0.11)*
G04 #@! TF.CreationDate,2023-12-04T17:04:48+01:00*
G04 #@! TF.ProjectId,PCB_Dongle_Linky,5043425f-446f-46e6-976c-655f4c696e6b,rev?*
G04 #@! TF.SameCoordinates,Original*
G04 #@! TF.FileFunction,Copper,L2,Bot*
G04 #@! TF.FilePolarity,Positive*
%FSLAX46Y46*%
G04 Gerber Fmt 4.6, Leading zero omitted, Abs format (unit mm)*
G04 Created by KiCad (PCBNEW (6.0.11)) date 2023-12-04 17:04:48*
%MOMM*%
%LPD*%
G01*
G04 APERTURE LIST*
G04 Aperture macros list*
%AMRoundRect*
0 Rectangle with rounded corners*
0 $1 Rounding radius*
0 $2 $3 $4 $5 $6 $7 $8 $9 X,Y pos of 4 corners*
0 Add a 4 corners polygon primitive as box body*
4,1,4,$2,$3,$4,$5,$6,$7,$8,$9,$2,$3,0*
0 Add four circle primitives for the rounded corners*
1,1,$1+$1,$2,$3*
1,1,$1+$1,$4,$5*
1,1,$1+$1,$6,$7*
1,1,$1+$1,$8,$9*
0 Add four rect primitives between the rounded corners*
20,1,$1+$1,$2,$3,$4,$5,0*
20,1,$1+$1,$4,$5,$6,$7,0*
20,1,$1+$1,$6,$7,$8,$9,0*
20,1,$1+$1,$8,$9,$2,$3,0*%
G04 Aperture macros list end*
G04 #@! TA.AperFunction,ComponentPad*
%ADD10R,1.700000X1.700000*%
G04 #@! TD*
G04 #@! TA.AperFunction,ComponentPad*
%ADD11O,1.700000X1.700000*%
G04 #@! TD*
G04 #@! TA.AperFunction,ComponentPad*
%ADD12C,2.400000*%
G04 #@! TD*
G04 #@! TA.AperFunction,SMDPad,CuDef*
%ADD13R,1.500000X1.780000*%
G04 #@! TD*
G04 #@! TA.AperFunction,SMDPad,CuDef*
%ADD14RoundRect,0.150000X-0.150000X0.587500X-0.150000X-0.587500X0.150000X-0.587500X0.150000X0.587500X0*%
G04 #@! TD*
G04 #@! TA.AperFunction,SMDPad,CuDef*
%ADD15RoundRect,0.250000X-0.450000X0.262500X-0.450000X-0.262500X0.450000X-0.262500X0.450000X0.262500X0*%
G04 #@! TD*
G04 #@! TA.AperFunction,SMDPad,CuDef*
%ADD16R,1.500000X2.000000*%
G04 #@! TD*
G04 #@! TA.AperFunction,SMDPad,CuDef*
%ADD17R,3.800000X2.000000*%
G04 #@! TD*
G04 #@! TA.AperFunction,SMDPad,CuDef*
%ADD18RoundRect,0.250000X0.262500X0.450000X-0.262500X0.450000X-0.262500X-0.450000X0.262500X-0.450000X0*%
G04 #@! TD*
G04 #@! TA.AperFunction,SMDPad,CuDef*
%ADD19RoundRect,0.150000X0.150000X-0.825000X0.150000X0.825000X-0.150000X0.825000X-0.150000X-0.825000X0*%
G04 #@! TD*
G04 #@! TA.AperFunction,ViaPad*
%ADD20C,0.800000*%
G04 #@! TD*
G04 #@! TA.AperFunction,Conductor*
%ADD21C,0.300000*%
G04 #@! TD*
G04 APERTURE END LIST*
D10*
G04 #@! TO.P,J0,1,Pin_1*
G04 #@! TO.N,I1*
X25275000Y-104400000D03*
D11*
G04 #@! TO.P,J0,2,Pin_2*
G04 #@! TO.N,unconnected-(J0-Pad2)*
X27815000Y-104400000D03*
G04 #@! TO.P,J0,3,Pin_3*
G04 #@! TO.N,I2*
X30355000Y-104400000D03*
G04 #@! TO.P,J0,4,Pin_4*
G04 #@! TO.N,unconnected-(J0-Pad4)*
X32895000Y-104400000D03*
G04 #@! TO.P,J0,5,Pin_5*
G04 #@! TO.N,A*
X35435000Y-104400000D03*
G04 #@! TD*
D10*
G04 #@! TO.P,J2,1,Pin_1*
G04 #@! TO.N,unconnected-(J2-Pad1)*
X42520000Y-108000000D03*
D11*
G04 #@! TO.P,J2,2,Pin_2*
G04 #@! TO.N,Net-(J2-Pad2)*
X42520000Y-110540000D03*
G04 #@! TO.P,J2,3,Pin_3*
G04 #@! TO.N,unconnected-(J2-Pad3)*
X42520000Y-113080000D03*
G04 #@! TO.P,J2,4,Pin_4*
G04 #@! TO.N,unconnected-(J2-Pad4)*
X42520000Y-115620000D03*
G04 #@! TO.P,J2,5,Pin_5*
G04 #@! TO.N,unconnected-(J2-Pad5)*
X42520000Y-118160000D03*
G04 #@! TO.P,J2,6,Pin_6*
G04 #@! TO.N,unconnected-(J2-Pad6)*
X42520000Y-120700000D03*
G04 #@! TO.P,J2,7,Pin_7*
G04 #@! TO.N,GND1*
X42520000Y-123240000D03*
G04 #@! TO.P,J2,8,Pin_8*
G04 #@! TO.N,unconnected-(J2-Pad8)*
X42520000Y-125780000D03*
G04 #@! TD*
D10*
G04 #@! TO.P,J1,1,Pin_1*
G04 #@! TO.N,Net-(J1-Pad1)*
X20000000Y-108000000D03*
D11*
G04 #@! TO.P,J1,2,Pin_2*
G04 #@! TO.N,Net-(J1-Pad2)*
X20000000Y-110540000D03*
G04 #@! TO.P,J1,3,Pin_3*
G04 #@! TO.N,Net-(J1-Pad1)*
X20000000Y-113080000D03*
G04 #@! TO.P,J1,4,Pin_4*
G04 #@! TO.N,Net-(J1-Pad4)*
X20000000Y-115620000D03*
G04 #@! TO.P,J1,5,Pin_5*
G04 #@! TO.N,unconnected-(J1-Pad5)*
X20000000Y-118160000D03*
G04 #@! TO.P,J1,6,Pin_6*
G04 #@! TO.N,unconnected-(J1-Pad6)*
X20000000Y-120700000D03*
G04 #@! TO.P,J1,7,Pin_7*
G04 #@! TO.N,unconnected-(J1-Pad7)*
X20000000Y-123240000D03*
G04 #@! TO.P,J1,8,Pin_8*
G04 #@! TO.N,+3.3V*
X20000000Y-125780000D03*
G04 #@! TD*
D10*
G04 #@! TO.P,J4,1,Pin_1*
G04 #@! TO.N,Net-(J4-Pad1)*
X25925000Y-129450000D03*
D11*
G04 #@! TO.P,J4,2,Pin_2*
G04 #@! TO.N,VCC*
X28465000Y-129450000D03*
G04 #@! TO.P,J4,3,Pin_3*
G04 #@! TO.N,GND*
X31005000Y-129450000D03*
G04 #@! TO.P,J4,4,Pin_4*
G04 #@! TO.N,Net-(DZ1-Pad1)*
X33545000Y-129450000D03*
G04 #@! TO.P,J4,5,Pin_5*
G04 #@! TO.N,Net-(J4-Pad5)*
X36085000Y-129450000D03*
G04 #@! TD*
D12*
G04 #@! TO.P,C1,1*
G04 #@! TO.N,VCC*
X23700000Y-117350000D03*
G04 #@! TO.P,C1,2*
G04 #@! TO.N,GND*
X38700000Y-117350000D03*
G04 #@! TD*
D10*
G04 #@! TO.P,J3,1,Pin_1*
G04 #@! TO.N,GND1*
X33225000Y-126150000D03*
D11*
G04 #@! TO.P,J3,2,Pin_2*
G04 #@! TO.N,Net-(J1-Pad4)*
X30685000Y-126150000D03*
G04 #@! TO.P,J3,3,Pin_3*
G04 #@! TO.N,+3.3V*
X28145000Y-126150000D03*
G04 #@! TD*
D13*
G04 #@! TO.P,U1,1*
G04 #@! TO.N,Net-(R1-Pad2)*
X29500000Y-113890000D03*
G04 #@! TO.P,U1,2*
G04 #@! TO.N,I2*
X29500000Y-111350000D03*
G04 #@! TO.P,U1,3*
G04 #@! TO.N,Net-(Q1-Pad1)*
X39030000Y-111350000D03*
G04 #@! TO.P,U1,4*
G04 #@! TO.N,+3.3V*
X39030000Y-113890000D03*
G04 #@! TD*
D14*
G04 #@! TO.P,Q2,1,G*
G04 #@! TO.N,Net-(Q2-Pad1)*
X22600000Y-124612500D03*
G04 #@! TO.P,Q2,2,S*
G04 #@! TO.N,GND*
X24500000Y-124612500D03*
G04 #@! TO.P,Q2,3,D*
G04 #@! TO.N,GND1*
X23550000Y-126487500D03*
G04 #@! TD*
D15*
G04 #@! TO.P,R1,1*
G04 #@! TO.N,I1*
X26565000Y-106837500D03*
G04 #@! TO.P,R1,2*
G04 #@! TO.N,Net-(R1-Pad2)*
X26565000Y-108662500D03*
G04 #@! TD*
D16*
G04 #@! TO.P,U2,1,VI*
G04 #@! TO.N,VCC*
X26300000Y-117150000D03*
G04 #@! TO.P,U2,2,GND*
G04 #@! TO.N,GND1*
X28600000Y-117150000D03*
D17*
X28600000Y-123450000D03*
D16*
G04 #@! TO.P,U2,3,VO*
G04 #@! TO.N,+3.3V*
X30900000Y-117150000D03*
G04 #@! TD*
D14*
G04 #@! TO.P,Q1,1,G*
G04 #@! TO.N,Net-(Q1-Pad1)*
X24600000Y-112862500D03*
G04 #@! TO.P,Q1,2,S*
G04 #@! TO.N,GND1*
X26500000Y-112862500D03*
G04 #@! TO.P,Q1,3,D*
G04 #@! TO.N,Net-(J2-Pad2)*
X25550000Y-114737500D03*
G04 #@! TD*
D18*
G04 #@! TO.P,R2,1*
G04 #@! TO.N,GND1*
X26062500Y-110600000D03*
G04 #@! TO.P,R2,2*
G04 #@! TO.N,Net-(Q1-Pad1)*
X24237500Y-110600000D03*
G04 #@! TD*
D15*
G04 #@! TO.P,R3,1*
G04 #@! TO.N,Net-(J2-Pad2)*
X22700000Y-113650000D03*
G04 #@! TO.P,R3,2*
G04 #@! TO.N,+3.3V*
X22700000Y-115475000D03*
G04 #@! TD*
D19*
G04 #@! TO.P,U3,1,VDD*
G04 #@! TO.N,VCC*
X36605000Y-123775000D03*
G04 #@! TO.P,U3,2,RA5*
G04 #@! TO.N,unconnected-(U3-Pad2)*
X35335000Y-123775000D03*
G04 #@! TO.P,U3,3,RA4*
G04 #@! TO.N,unconnected-(U3-Pad3)*
X34065000Y-123775000D03*
G04 #@! TO.P,U3,4,RA3*
G04 #@! TO.N,Net-(J4-Pad1)*
X32795000Y-123775000D03*
G04 #@! TO.P,U3,5,RA2*
G04 #@! TO.N,Net-(Q2-Pad1)*
X32795000Y-118825000D03*
G04 #@! TO.P,U3,6,RA1*
G04 #@! TO.N,Net-(J4-Pad5)*
X34065000Y-118825000D03*
G04 #@! TO.P,U3,7,RA0*
G04 #@! TO.N,Net-(DZ1-Pad1)*
X35335000Y-118825000D03*
G04 #@! TO.P,U3,8,VSS*
G04 #@! TO.N,GND*
X36605000Y-118825000D03*
G04 #@! TD*
D20*
G04 #@! TO.N,I1*
X31300000Y-106200000D03*
X28600000Y-106200000D03*
X35200000Y-107650000D03*
G04 #@! TO.N,VCC*
X26200000Y-121500000D03*
X25750000Y-124550000D03*
X26200000Y-126750000D03*
G04 #@! TO.N,GND*
X24850000Y-126825500D03*
G04 #@! TO.N,Net-(DZ1-Pad1)*
X31700000Y-121200000D03*
X35750000Y-126250000D03*
G04 #@! TO.N,+3.3V*
X40000000Y-126300000D03*
G04 #@! TO.N,GND1*
X27158888Y-121217974D03*
G04 #@! TO.N,Net-(J4-Pad5)*
X33764068Y-121091559D03*
G04 #@! TO.N,Net-(Q2-Pad1)*
X33500000Y-116850000D03*
X22600000Y-119050000D03*
G04 #@! TO.N,Net-(J1-Pad4)*
X21500000Y-124950000D03*
X29400000Y-125150000D03*
G04 #@! TD*
D21*
G04 #@! TO.N,I1*
X31300000Y-106200000D02*
X33750000Y-106200000D01*
X33750000Y-106200000D02*
X35200000Y-107650000D01*
X27962500Y-106837500D02*
X28600000Y-106200000D01*
X26565000Y-106837500D02*
X27962500Y-106837500D01*
G04 #@! TO.N,Net-(Q1-Pad1)*
X24075000Y-110437500D02*
X24237500Y-110600000D01*
X24425000Y-102850000D02*
X24075000Y-103200000D01*
X24075000Y-103200000D02*
X24075000Y-110437500D01*
X37400000Y-102850000D02*
X24425000Y-102850000D01*
X39030000Y-111350000D02*
X39030000Y-104480000D01*
X39030000Y-104480000D02*
X37400000Y-102850000D01*
G04 #@! TO.N,Net-(J2-Pad2)*
X38600000Y-102350000D02*
X40250000Y-104000000D01*
X23350000Y-102350000D02*
X38600000Y-102350000D01*
X22700000Y-103000000D02*
X23350000Y-102350000D01*
X40250000Y-104000000D02*
X40250000Y-108270000D01*
X40250000Y-108270000D02*
X42520000Y-110540000D01*
X22700000Y-113650000D02*
X22700000Y-103000000D01*
G04 #@! TO.N,I2*
X29500000Y-105255000D02*
X30355000Y-104400000D01*
X29500000Y-111350000D02*
X29500000Y-105255000D01*
G04 #@! TO.N,I1*
X25275000Y-104400000D02*
X25275000Y-105547500D01*
X25275000Y-105547500D02*
X26565000Y-106837500D01*
G04 #@! TO.N,VCC*
X36605000Y-124334339D02*
X34450000Y-126489339D01*
X28465000Y-128685000D02*
X28465000Y-129450000D01*
X23900000Y-117150000D02*
X23700000Y-117350000D01*
X26300000Y-117150000D02*
X23900000Y-117150000D01*
X36605000Y-123775000D02*
X36605000Y-124334339D01*
X33550000Y-128250000D02*
X28900000Y-128250000D01*
X26200000Y-121500000D02*
X26300000Y-121400000D01*
X34450000Y-127350000D02*
X33550000Y-128250000D01*
X34450000Y-126489339D02*
X34450000Y-127350000D01*
X26300000Y-121400000D02*
X26300000Y-117150000D01*
X28900000Y-128250000D02*
X28465000Y-128685000D01*
X26200000Y-125000000D02*
X26200000Y-126750000D01*
X25750000Y-124550000D02*
X26200000Y-125000000D01*
G04 #@! TO.N,GND*
X24500000Y-126475500D02*
X24500000Y-124612500D01*
X37300000Y-130850000D02*
X38700000Y-129450000D01*
X32405000Y-130850000D02*
X37300000Y-130850000D01*
X36605000Y-118825000D02*
X37225000Y-118825000D01*
X37225000Y-118825000D02*
X38700000Y-117350000D01*
X31005000Y-129450000D02*
X32405000Y-130850000D01*
X24850000Y-126825500D02*
X24500000Y-126475500D01*
X38700000Y-129450000D02*
X38700000Y-117350000D01*
G04 #@! TO.N,I1*
X26565000Y-106837500D02*
X26565000Y-106735000D01*
G04 #@! TO.N,Net-(DZ1-Pad1)*
X35335000Y-117435000D02*
X34000000Y-116100000D01*
X35335000Y-118825000D02*
X35335000Y-117435000D01*
X34000000Y-116100000D02*
X33150000Y-116100000D01*
X33150000Y-116100000D02*
X32000000Y-117250000D01*
X32000000Y-117250000D02*
X32000000Y-120900000D01*
X32000000Y-120900000D02*
X31700000Y-121200000D01*
X33545000Y-129450000D02*
X35750000Y-127245000D01*
X35750000Y-127245000D02*
X35750000Y-126250000D01*
G04 #@! TO.N,+3.3V*
X40700000Y-115560000D02*
X39030000Y-113890000D01*
X27950000Y-126150000D02*
X28145000Y-126150000D01*
X21795000Y-127575000D02*
X26525000Y-127575000D01*
X40700000Y-125700000D02*
X40700000Y-115560000D01*
X18800000Y-115122943D02*
X18800000Y-124650000D01*
X40100000Y-126300000D02*
X40700000Y-125700000D01*
X19502943Y-114420000D02*
X18800000Y-115122943D01*
X40000000Y-126300000D02*
X40100000Y-126300000D01*
X21645000Y-114420000D02*
X19502943Y-114420000D01*
X39030000Y-113890000D02*
X34160000Y-113890000D01*
X22700000Y-115475000D02*
X21645000Y-114420000D01*
X26525000Y-127575000D02*
X27950000Y-126150000D01*
X20000000Y-125780000D02*
X21795000Y-127575000D01*
X18800000Y-124650000D02*
X18870000Y-124650000D01*
X34160000Y-113890000D02*
X30900000Y-117150000D01*
X18870000Y-124650000D02*
X20000000Y-125780000D01*
G04 #@! TO.N,GND1*
X23650000Y-123450000D02*
X28600000Y-123450000D01*
X26062500Y-110600000D02*
X26062500Y-111312500D01*
X26062500Y-111312500D02*
X26500000Y-111750000D01*
X28600000Y-123450000D02*
X28600000Y-117150000D01*
X23550000Y-123550000D02*
X23650000Y-123450000D01*
X28600000Y-117150000D02*
X28600000Y-116250000D01*
X27765000Y-115415000D02*
X27765000Y-114127500D01*
X28600000Y-122659086D02*
X28600000Y-123450000D01*
X27158888Y-121217974D02*
X28600000Y-122659086D01*
X27765000Y-114127500D02*
X26500000Y-112862500D01*
X23550000Y-126487500D02*
X23550000Y-123550000D01*
X28600000Y-116250000D02*
X27765000Y-115415000D01*
X26500000Y-111750000D02*
X26500000Y-112862500D01*
G04 #@! TO.N,Net-(J4-Pad1)*
X31650000Y-127450000D02*
X32000000Y-127100000D01*
X32000000Y-127100000D02*
X32000000Y-124570000D01*
X25925000Y-129450000D02*
X27925000Y-127450000D01*
X32000000Y-124570000D02*
X32795000Y-123775000D01*
X27925000Y-127450000D02*
X31650000Y-127450000D01*
G04 #@! TO.N,Net-(J4-Pad5)*
X36085000Y-129450000D02*
X37950000Y-127585000D01*
X34250000Y-120450000D02*
X34065000Y-120265000D01*
X33764068Y-121091559D02*
X33764068Y-120565932D01*
X36950000Y-120450000D02*
X34250000Y-120450000D01*
X37950000Y-121450000D02*
X36950000Y-120450000D01*
X33764068Y-120565932D02*
X34065000Y-120265000D01*
X37950000Y-127585000D02*
X37950000Y-121450000D01*
X34065000Y-120265000D02*
X34065000Y-118825000D01*
G04 #@! TO.N,Net-(Q1-Pad1)*
X24237500Y-110600000D02*
X24237500Y-111487500D01*
X24650000Y-111900000D02*
X24650000Y-112812500D01*
X24237500Y-111487500D02*
X24650000Y-111900000D01*
X24650000Y-112812500D02*
X24600000Y-112862500D01*
G04 #@! TO.N,Net-(Q2-Pad1)*
X33500000Y-116850000D02*
X33500000Y-117350000D01*
X33500000Y-117350000D02*
X33000000Y-117850000D01*
X22600000Y-124612500D02*
X22600000Y-119050000D01*
G04 #@! TO.N,Net-(R1-Pad2)*
X28300000Y-110397500D02*
X28300000Y-113050000D01*
X28300000Y-113050000D02*
X29140000Y-113890000D01*
X26565000Y-108662500D02*
X28300000Y-110397500D01*
X29140000Y-113890000D02*
X29500000Y-113890000D01*
G04 #@! TO.N,Net-(J1-Pad1)*
X18800000Y-109200000D02*
X18800000Y-111880000D01*
X20000000Y-108000000D02*
X18800000Y-109200000D01*
X18800000Y-111880000D02*
X20000000Y-113080000D01*
G04 #@! TO.N,Net-(J1-Pad4)*
X21500000Y-124950000D02*
X21500000Y-117120000D01*
X29685000Y-125150000D02*
X29400000Y-125150000D01*
X21500000Y-117120000D02*
X20000000Y-115620000D01*
X30685000Y-126150000D02*
X29685000Y-125150000D01*
G04 #@! TO.N,Net-(J2-Pad2)*
X24587500Y-114737500D02*
X25550000Y-114737500D01*
X42540000Y-110540000D02*
X42540000Y-110282894D01*
X22700000Y-113650000D02*
X23500000Y-113650000D01*
X23500000Y-113650000D02*
X24587500Y-114737500D01*
G04 #@! TD*
M02*
