M48
INCH,TZ
T1C0.0157
T2C0.0394
T3C0.0472
%
G90
G05
T1
X8465Y-49193
X8898Y-46870
X9783Y-49931
X10138Y-49035
X10315Y-47835
X10315Y-49902
X10692Y-47724
X11260Y-41811
X11575Y-49272
X12323Y-41811
X12480Y-47717
X13189Y-46004
X13293Y-47674
X13858Y-42382
X14075Y-49705
X15748Y-49724
T2
X7874Y-42520
X7874Y-43520
X7874Y-44520
X7874Y-45520
X7874Y-46520
X7874Y-47520
X7874Y-48520
X7874Y-49520
X9951Y-41102
X10207Y-50965
X10951Y-41102
X11081Y-49665
X11207Y-50965
X11951Y-41102
X12081Y-49665
X12207Y-50965
X12951Y-41102
X13081Y-49665
X13207Y-50965
X13951Y-41102
X14207Y-50965
X16740Y-42520
X16740Y-43520
X16740Y-44520
X16740Y-45520
X16740Y-46520
X16740Y-47520
X16740Y-48520
X16740Y-49520
T3
X9331Y-46201
X15236Y-46201
T0
M30
